<?xml version="1.0" encoding="utf-8"?>
<!-- Generator: Adobe Illustrator 25.2.3, SVG Export Plug-In . SVG Version: 6.00 Build 0)  -->
<svg version="1.1" id="Layer_1" xmlns="http://www.w3.org/2000/svg" xmlns:xlink="http://www.w3.org/1999/xlink" x="0px" y="0px"
	 viewBox="0 0 414 896" style="enable-background:new 0 0 414 896;" xml:space="preserve">
<style type="text/css">
	.st0  {fill:#845d74;}
	.st1  {fill:#845d74;}
	.st2  {fill:#845d74;}
	.st3  {fill:#845d74;}
	.st4  {fill:#845d74;}
	.st5  {fill:#845d74;}
	.st6  {fill:#845d74;}
	.st7  {fill:#845d74;}
	.st8  {fill:#845d74;}
	.st9  {fill:#845d74;}
	.st10 {fill:#845d74;}
	.st11 {fill:#845d74;}
	.st12 {fill:#845d74;}
	.st13 {fill:#845d74;}
</style>
<g id="Layer_2_1_">
	<g id="Layer_1-2">
		<path class="st0" d="M290,0h123c0,58.9,0,117.8,0,176.7c0.2,2.8,0.5,5.6,1,8.3v3l-9,22c-3.5,6.4-7.4,12.6-10.4,19.2
			c-2.7,6-4.4,12.5-6.6,18.8c-0.5,1.7-1,3.5-1.6,5.2c-1.8,5-3.6,9.9-5.4,14.8c-1,1.2-2.4,2.3-3,3.7c-4.1,10.1-8,20.2-12,30.3
			c-1.3,4.7-2.7,9.3-4,14c-1.8,1.9-4.2,3.5-5.1,5.8c-3.5,8.6-6.6,17.5-9.9,26.2l-10,24c-4.5,8.2-8.4,16.7-10,26l-4,10
			c-1.5,2.5-3.4,4.9-4.5,7.5c-2.7,6.1-5,12.3-7.5,18.5l-7,19c-4.9,6.6-6.8,14.4-9,22l-2,5c-0.4,0.3-1,0.5-1.1,0.9
			c-4.1,9.2-8.2,18.4-12.2,27.7c-0.3,0.6,0.2,1.6,0.3,2.4l-3,7c-1.5,2.4-3.3,4.6-4.3,7.1c-6.5,15.5-12.7,31.1-19.1,46.7
			s-12.6,30.7-19.1,46c-7.9,19-16,38-24,57.1c-2.9,6.9-5.7,13.8-8.5,20.8c-1,2.4-1.4,4.6,2.5,4.2L204,705c1,18.5,2.1,36.9,3.1,55.4
			l1.3,0.3c1.1-2.1,2.4-4.2,3.4-6.4c6.1-13.5,12.2-27,18.3-40.5c20.6-46,41.1-92.1,61.6-138.2c1.2-2.7,1.6-5.7,2.4-8.6
			c1.3-1.7,2.9-3.2,3.8-5c4.1-8.8,8-17.6,12-26.4c11-24.3,22.1-48.5,33.1-72.8c9.1-20,18.2-40,27.2-60.1
			c9.7-21.4,19.5-42.7,29.2-64.1c4.2-9.2,8.4-18.5,12.6-27.7c0.5,2.9,0.8,5.9,1,8.8c0,112.7,0,225.4,0,338.2
			c-2.7,4.1-5.1,8.3-4,13.8c-1-0.9-1.7-2.1-1.9-3.4c-1.2-14.7-2.3-29.5-3.3-44.3c-0.7-10.3-0.5-20.7-2.2-30.8
			c-3.4-19.7-0.6-39.9-4.4-59.5c-0.6-3.2,0-6.7-0.1-10c-0.4-10.9-0.5-21.8-1.2-32.7c-1.1-18.6-2.5-37.1-3.8-55.7
			c-0.4-6-0.5-12-1.2-17.9c-0.2-1.7-1.9-3.1-2.9-4.7c-1.2,1.4-3.2,2.8-3.3,4.3c-0.7,6.3-1,12.5-1,18.8c0.1,10.6,3.3,21,1.5,31.8
			c-0.2,1.8-0.1,3.7,0.3,5.5c1.3,7.5,2.9,15,4,22.6c0.6,4.6,0.4,9.2,0.6,13.9c0.2,4,1,8,0.5,11.9c-1.4,11-3.5,22-0.5,33.1
			c0,0.3,0,0.7,0,1c0.6,15.6,1.4,31.2,1.9,46.8c0.8,24.6,1.4,49.1,2.1,73.7c0.1,2.8-0.3,5.7,0,8.5c1.7,15,3.6,30,5.4,45
			c2,17,3.8,34,5.8,51c0.1,1.3,0.5,2.6,1.3,3.7c0.8,0.9,2.4,1,3.6,1.5c0.2-1.2,1-2.7,0.5-3.5c-1.8-3-1-5.6,0.2-8.5
			c0.7-1.9,1-3.8,1-5.8c0.1-4.3,0.1-8.7,0.1-13c0.5,2.3,0.8,4.5,1,6.8c0,41.9,0,83.9,0,125.8c0,7-0.4,7.4-7.3,7.4
			c-24.8,0-49.6,0-74.4,0c-2.5,0.2-4.9,0.5-7.3,1H297c-0.7-8.8-1.5-17.6-2-26.4c-0.8-16.1-1.4-32.2-2-48.3
			c-0.7-20.1-1.4-40.2-2.1-60.3c-0.3-9.6-0.7-19.2-1.2-28.8c-0.9-19.6-1.9-39.2-2.8-58.8c-0.5-11.6-0.7-23.2-1.3-34.8
			c-0.1-2-2-3.8-3.1-5.7c-1.6,1.4-4.3,2.7-4.5,4.3c-1,5.7-1.9,11.5-1.4,17.2c1,11.7,4.1,23.3,2.5,35.2c-0.1,2-0.1,4,0.1,6
			c0.6,11.6,1.2,23.2,1.9,34.8c0.4,6,0.9,11.9,1.4,17.9c0.5,7,1.1,13.9,1.6,20.9c1.2,17.2,2.6,34.5,3.6,51.8
			c0.7,11.2,1.1,22.5,1.4,33.8c0.2,6.8,0,13.6,0.3,20.4c0.3,7,1.1,13.9,1.6,20.9h-11c-0.7-20.3-1.4-40.6-2.1-60.8
			c-0.4-11.2-0.6-22.5-1-33.7c-0.6-15.5-1.2-30.9-2-46.4c-0.8-15.7-1.9-31.5-2.8-47.2c-0.2-3.2,0-6.3,0-9.5
			c-0.2-8.6-0.3-17.2-0.6-25.8c-0.1-2.8-0.4-5.6-0.9-8.4c-0.3-1.2-1.1-2.3-2.2-2.9c-0.6-0.3-2.1,0.7-2.8,1.5
			c-3.6,4.1-5.6,8.5-3.4,14.2c1,3.1,1.6,6.4,1.7,9.7c0.5,8.3,0.5,16.6,1,24.9c0.5,8.1,1.9,16.2,1.9,24.4
			c-0.2,20.8,2.6,41.4,3.9,62.2c0.5,8.3,0.8,16.6,1.2,24.9c0.7,12.5,1.4,24.9,2.2,37.3c0.8,11.9,1.8,23.8,2.8,35.8h-12
			c0.3-2.5,1-4.9,0.9-7.4c-0.4-14.1-1-28.2-1.5-42.3c-0.3-8-0.3-15.9-0.7-23.9c-0.8-16.7-1.8-33.4-2.8-50.2
			c-0.6-10.1-1.1-20.2-1.7-30.3c-0.1-1-0.1-2,0-3c2-15-0.2-29.9-1.8-44.8c-0.2-1.6-1.9-3.1-2.9-4.6c-1.4,1.5-3.7,2.8-3.9,4.5
			c-0.9,5.5-1.3,11.2-1,16.8c0.5,7.1,2.7,14.1,3.1,21.2c0.8,15.5,0.6,30.9,1.2,46.4c0.4,9.6,1.8,19.2,2.6,28.8
			c0.4,5.2,0.4,10.5,0.5,15.8c0.1,4.7-0.1,9.3,0.2,14c0.8,11.4,1.7,22.8,2.6,34.2c0.7,8.3,1.3,16.6,2,24.8H252c0-2.5,0-5-0.1-7.5
			c-0.9-19.4-2.2-38.8-2.8-58.2c-0.5-17.8,0-35.5-0.2-53.3c-0.1-6.6-1-13.2-1.3-19.9c-0.6-12.1-1.1-24.2-1.7-36.3
			c0.1-0.5,0-1-0.2-1.5c-0.7-1-1.4-2.5-2.4-2.7c-1.3-0.2-2.5,0.3-3.4,1.2c-1.2,1.4-1.9,3.1-2,4.9c0.3,7.5,0.9,14.9,1.4,22.3
			c0.9,11.9,2,23.8,2.6,35.8c0.2,4.4-1,9-0.6,13.4c1.2,14.7,3.1,29.4,4.4,44.1c0.8,8.9,1.1,17.9,1.3,26.8c0.2,10.3,0.1,20.6,0.1,31
			h-8c0.3-2.5,1-4.9,0.9-7.4c-0.2-9.1-0.7-18.2-1.1-27.3c-0.6-13.5-1.2-26.9-1.9-40.4c-0.1-3.2-0.4-6.3-0.6-9.5
			c-0.5-8.6-1.1-17.2-1.3-25.8c-0.2-12.6-0.1-25.2-0.2-37.7c-0.1-1.3-0.3-2.6-0.8-3.9c-0.9-2.6-2.5-2.9-4.5-1
			c-3.4,3-3.8,6.8-3.3,10.9c1,7.9,2.2,15.8,2.8,23.8c0.7,8.6,0.7,17.2,1.2,25.8c0.8,14.3,1.8,28.5,2.7,42.8
			c0.3,4.6,0.2,9.3,0.6,13.9c1.1,11.9,2.3,23.8,0.4,35.8h-7c0-8.8,0.2-17.6-0.1-26.4c-0.4-13.5-1.3-26.9-1.9-40.4
			c-0.8-19.3-1.4-38.6-2.1-57.8c0-1.7-0.2-3.3-0.7-4.9c-0.5-0.8-1.3-1.2-2.2-1.2c-2.7,0.6-5.7,6.3-5.3,9.1c0.8,3.9,1.4,7.8,1.7,11.8
			c0.4,10.4-0.7,21.1,1,31.3c2.4,14.3,0.5,28.6,2.4,42.8c1.5,11.8,2.1,23.8,3.1,35.7h-73c2-6,4-12,6-18c0-1,0-2,0.1-3
			c12.9,4.4,25.8,3.7,38.8,0c3.7-0.9,7.5-1.3,11.3-1.3c4.1-0.2,6.3-1.5,7.1-5.5s1.6-7.9,1.5-11.8c-0.3-8.8-1.2-17.5-1.9-26.3
			c-0.2-3-1.7-5.1-4.7-5.7c-6.8-1.5-13.6-3.8-20.5-4c-10.6-0.3-21.1-1.5-31.8,0.5c-4,0.7-5.3,2.3-6.5,5.4
			c-3.6,9.1-7.4,18.2-11.1,27.3c-5.8,14.2-11.6,28.4-17.3,42.6H71c0-27-0.1-54-0.2-80.9c-0.1-0.5-0.2-1-0.5-1.4
			c-0.1-0.1-0.2-0.2-0.3-0.3c-0.3-0.1-0.7-0.2-1-0.3c-2.9,2.9-4.2,6.6-5,10.8c-1.1,5.9-2.7,11.6-4.7,17.3
			c-3.7,9.6-6.1,19.3-6.3,29.6c-0.1,9.7-1.1,10.6-10.7,9.8c-5.7-0.4-6.9-1.6-7.2-7.3c-0.4-7.5-0.8-15-1-22.4
			c-0.4-17-0.8-33.9-1-50.9c-0.2-14.7,0-29.3-0.1-44c0-5-0.8-10-0.8-14.9c0.1-16.4,0.3-32.9,0.6-49.3c0.1-4.9,0.7-9.9,1.3-14.8
			c0.2-3,2.6-5.3,5.6-5.4c3.6-0.3,6.7,0.7,8.2,4.3c0.6,1.5,1,3.2,1,4.8c0.7,20.5,1.4,40.9,2.1,61.4c0.4,13.3,0.7,26.6,0.8,39.9
			c0.1,8.3,0.5,16.5-2.4,24.7c-1.8,5.1-3.5,10.9-1.4,16.6c0.3,8.9-0.7,17.9,0.6,26.8l1,0.2c0.8-1,1.5-2,2.3-3
			c1.9-4.9,4.2-9.8,5.7-14.8c4.2-13.6,8.1-27.3,12-41c0.6-2.7,1-5.5,1.3-8.2c0.8-4.6,1.2-9.2,2.5-13.7c5.1-16.9,10.6-33.6,15.7-50.5
			c4.6-15.3,8.8-30.7,13.2-46c2.8-9.8,5.9-19.6,8.3-29.5c1.7-7.2,3-14.3,5.9-21.2c2.5-5.9,3.5-12.5,5.2-18.7
			c3.8-13.5,7.4-26.9,11.4-40.3s6.2-27.6,13-40.2c0.6-1.1,0.6-2.6,0.8-3.9c1.6-0.8,3.2-1.6,4.9-2.3c2.1-0.8,4.2-2,6.4-2.2
			c8.6-0.7,17.2-1.1,25.8-1.7c2.9-0.2,4.7-1.6,4.8-4.6c0.4-13.3,0.8-26.6,0.9-39.9c0-5-1.9-6.7-6.9-7.4c-8.4-1.2-16.8-2.2-25.2-3.4
			c-4.8-0.6-7-2.6-7.1-6.8c-0.2-12.6-0.4-25.3-0.6-37.9c-0.2-7-0.8-14-0.8-20.9c0-7.3,0.8-14.6,0.8-21.9c0.1-19.7,0-39.3,0-59
			c0-4.5-0.2-9-0.2-13.5c0-4.1-0.1-8.3,0.3-12.4c0.7-6.7,1.3-13.2-2.1-19.5c-1.1-2.1-1.8-4.3-2-6.7c-0.8-8.6-1.9-17.2-1.9-25.8
			c0-7.8,1.1-15.5-0.9-23.3c-0.7-2.6,0-5.6,0.4-8.4c0.8-5.5,1.2-10.8-0.2-16.3c-0.5-2.6-0.3-5.2,0.6-7.7c1.9-5.2,2.2-10.8,0.8-16.2
			c-1.7-6.5,0-8.5,6.6-9.1c1.3-0.1,2.6,0.2,4,0.3c4,0.1,8,0.1,11.9,0c5-0.1,10-0.6,15-0.5c5.4,0.1,6.8,2.2,6.5,7.7
			c-0.3,3.1-0.3,6.3,0.2,9.4c2.9,16.1,1.8,32.2,1.9,48.3c-0.1,1.5-0.2,3-0.5,4.5c-0.8,8.1-2.1,16.2-2.4,24.3
			c-0.4,11,0.9,22-4.6,32.3c-0.5,1-0.4,2.3-0.7,3.4c-0.8,4-2.7,7.1-6.5,8.9c-1.8,0.8-3.5,1.9-5,3.2c-2.1,1.8-2.7,4.1,0.4,5.5
			c4.4,1.9,5.1,5.5,5.4,9.8c0.4,3.3,1.2,6.4,2.6,9.4c2.7,6.5,5.7,13,8.7,19.4c1.1,2.3,2.4,4.5,3.7,6.8c0.5,1.7,1.1,3.5,1.8,5.8
			l2.1-4.8c2.1-2.9,3.7-6.4,6.4-8.6c3.7-2.9,6.1-7.1,6.7-11.8c0.1-1.1,0.2-2.9,0.9-3.2c3.4-1.7,4.1-4.9,4.7-9.1
			c2.6,5.9,0.1,11.6,3.2,16.3c0.8-9.1,1-18.2,0.8-27.3c-0.2-9.2,3.3-17.5,5.6-26.3c3.1,19.8,2.7,39.7,4.9,59.4h1.9
			c0-8.7,0.2-17.4,0-26.1c-0.4-13.8-1.3-27.6-1.9-41.4c-0.4-8.6-2.1-10.5-10.6-10.5c-0.5-0.1-1-0.2-1.5-0.4c6.6-3.7,8.6-10,8.9-16.8
			c0.3-5.1-0.4-10.3-0.3-15.4c0.1-1.9,0.7-4.9,2-5.6c8-4.2,8.7-11.7,9.3-19.2c0.4-4.8-0.1-9.7,0.2-14.5c0.2-2.1,0.9-5.1,2.4-6.1
			c7.7-5.5,9.1-13.5,9.4-22c0.2-4.8-0.2-9.7,0.2-14.5c0.1-2,0.9-4.8,2.3-5.7c6.5-3.9,8.5-10.3,9.4-16.9c1-7,0.6-14.3,1.2-21.4
			c0.2-2.3,0.8-5.6,2.4-6.6c5.2-3.2,7.1-7.6,6.6-13.4c1.2-2,3.3-4,3.5-6.1c0.7-5.7,0.9-11.5,0.6-17.3c-0.2-5.3-0.6-10.1,5-13.4
			c2.1-1.3,3.6-4.4,4.3-7C288,23.7,291.1,12.2,290,0z M352.5,541.7h0.4c0-0.8,0-1.7,0-2.5c-1-15.1-2-30.2-3.1-45.3
			c-0.1-1.2-0.2-2.3-0.6-3.4c-0.8-2.5-2.8-3-3.9-0.8c-2.4,4.7-5.1,9.5-6.1,14.5c-2.9,13.9,0.1,27.8,1.3,41.7
			c0.8,10.1,1.8,20.2,2.5,30.3c1,14.8,1.8,29.5,2.8,44.3c1.3,18.7,3,37.5,4.1,56.2c0.3,4.8-1.1,9.6-0.8,14.4
			c1.3,20.5,2.8,41,4.4,61.6c0.3,3.5,0.9,6.9,1.7,10.3c2.3,10.2,6.2,20.1,4.3,30.9c-0.2,1,1.2,2.4,1.8,3.6c0.9-1,2.3-1.8,2.5-2.9
			c0.8-3.8,1.1-7.6,1.1-11.4c-1.1-21.5-2.4-43.1-3.7-64.6c-0.1-2.3-0.5-4.8,0.1-7c2.6-9.3,0.2-18.5-0.1-27.7
			c-0.4-8.6-1.6-17.2-2.2-25.8s-0.7-17.2-1.5-25.8c-1.9-19.7-3.7-39.4-3.5-59.2c0.1-9.1-0.9-18.2-1.4-27.3
			C352.5,544.3,352.5,543,352.5,541.7z M369.9,605.3l-1.3,0.1c0.5,10.1,1.3,20.2,1.3,30.4c0,8-1,15.9,2,23.6
			c0.5,1.4,0.1,3.3-0.1,4.9c-0.5,4.3-1.8,8.6-1.5,12.8c0.5,9.6,1.8,19.2,2.7,28.8c0.5,5-0.3,10.3,1.4,14.8
			c2.4,6.7,2.7,13.3,2.8,20.1c0,2.8,0,6.1,1.3,8.3c4.3,7,3.9,14.5,4,22.2c0.1,4.6,1.1,9.2,2,13.8c0.2,1,1.6,1.8,2.4,2.7
			c0.7-1,1.8-2.1,1.9-3.2c0.1-2.2,0-4.3-0.3-6.5c-0.5-6-1.2-11.9-1.5-17.8c-0.5-12.8,0.1-25.7-1.4-38.4c-1.1-9.2-1.7-18.6-1.6-27.9
			c0.1-12.7-0.4-25.3-3.3-37.7c-0.9-3.8-0.6-8-0.6-11.9c-0.1-5.1,0-10.3-0.1-15.4c-0.1-2.5-0.6-5-0.7-7.5
			c-0.7-12.9-1.2-25.8-1.9-38.7c-0.5-8.1-1.7-16.2-2-24.4c-0.5-10.6-0.1-21.2-0.7-31.8c-0.9-17.3-2.3-34.5-3.5-51.8
			c-0.5-6.6-0.8-13.3-1.5-19.9c-0.1-1.2-1.5-2.2-2.2-3.3c-0.8,0.9-1.5,1.9-2.1,3c-0.6,1.4-0.3,3.2-1.2,4.3
			c-3.9,4.7-3.3,10.1-2.5,15.3c2.6,15.6,4.2,31.3,3.1,47.2c-0.2,3.8-1.5,7.7-1.1,11.4c0.9,8.2,2.6,16.4,3.7,24.6
			c0.4,3.2,0,6.5-0.1,9.8c-0.1,3.6-0.8,7.3-0.4,10.8C367.5,587.2,368.8,596.2,369.9,605.3L369.9,605.3z M333.5,546.3h-0.2
			c-0.5-5.1-1-10.2-1.7-15.3c-0.2-1.1-1.2-2.2-1.8-3.2c-1.1,0.5-2.2,1.2-3.1,2c-4.7,5.5-6.7,11.7-5.2,19c0.4,2.5,0.6,5,0.6,7.5
			c0.5,9,0.4,18,1.5,26.9c2.5,20.8,4.2,41.6,3.9,62.6c-0.2,13.7,3.6,27.3,4.8,41.1c0.8,9.4,0,18.9,0.2,28.4
			c0.1,5.8,0.4,11.6,1.1,17.3c0.6,3.7,1.5,7.4,2.7,11c0.4,1.4,1.5,2.6,2.3,3.9c0.8-1.2,2.4-2.5,2.4-3.8c-0.3-18.1,0.1-36.3-1.5-54.3
			c-1.6-16.6-2.3-33.2-2.2-49.8c0-2.7,0.5-5.3,0.3-7.9c-0.7-8.5-1.9-16.9-2.2-25.3C334.4,586.2,334,566.2,333.5,546.3L333.5,546.3z
			 M316.6,599.8l1-0.1c-0.8-10.3-1.4-20.5-2.4-30.8c-0.1-1.4-1.5-2.7-2.2-4c-1.2,1.1-2.6,2-3.4,3.2c-5.2,8-4.3,17-3.5,25.6
			c1.1,11.4,4.8,22.4,3.9,34.1c-0.4,6.8-0.3,13.6,0.3,20.4c1,16.2,2.2,32.5,3.6,48.7c0.7,8.6,1.8,17.1,2.7,25.7c0.2,1.3,0.2,2.7,0,4
			c-1.5,8.7,0,17.3,1.9,25.7c0.3,1.2,1.6,2.1,2.5,3.2c0.8-1.2,2.4-2.4,2.4-3.6c-0.2-10.1-0.6-20.3-1.1-30.4
			c-0.4-7.6-1.5-15.2-1.7-22.8c-0.4-15.4-0.2-30.8-0.8-46.2C319,634.9,317.6,617.4,316.6,599.8L316.6,599.8z M298.4,728l-1.3,0.1
			c1.4,12.2,2.7,24.4,4.3,36.6c0.2,1.5,1.6,2.9,2.5,4.3c0.9-1.5,2.4-2.9,2.5-4.4c0.3-6.5,0.3-12.9,0.1-19.4
			c-0.3-7.5-1.1-14.9-1.5-22.4c-0.5-11.5-0.8-22.9-1.1-34.4c-0.1-5-0.1-9.9-0.4-14.9c-0.4-6.5-1.2-12.9-1.5-19.3
			c-0.8-16.1-1.4-32.2-2.1-48.2c-0.1-1.5-1.2-2.8-1.9-4.3c-1.6,0.8-3.6,1.1-4.6,2.3c-3.3,3.7-3.6,8.3-3.2,13.2
			c0.9,10.7,1.6,21.5,2.4,32.2c1.4,18.5,2.8,37.1,4.1,55.6C297.3,712.7,297.9,720.4,298.4,728z M290.1,344.3c0.3-27-1-54-4.1-80.8
			C284,266.6,287.6,338.6,290.1,344.3L290.1,344.3z M273.9,347.3c1.1-4.9-0.9-76.4-3.6-79.1C268.3,272.5,271.5,341.3,273.9,347.3
			L273.9,347.3z M306.6,322.3h2.2c0-3.6,0.1-7.1,0-10.7s-0.5-6.9-0.8-10.4s-0.3-7.2-0.6-10.9c-0.2-3.4-0.4-6.9-0.9-10.3
			c-0.5-3.2,1.7-6.9-0.7-9.8l-1.7,0.2C305,287.8,305.8,305.1,306.6,322.3L306.6,322.3z M325,312.7l1.4-0.1
			c-0.6-10.3-1.2-20.7-1.8-31l-1.6,0.1C323.5,292.1,322.5,302.5,325,312.7z"/>
		<path class="st1" d="M116,187c1.9-11,3.6-22,5.8-33c3.3-16.3,6.9-32.6,10.3-48.9c0.8-3.9,3.3-5.2,6.8-5.1
			c8.1,0.4,16.3,0.9,24.4,1.3c5.1,0.3,10.3,0.4,15.4,0.6c3.5,0.1,5.2-1.7,5.2-5.2c-0.2-10.5-0.5-21-0.7-31.4c0-0.5-0.1-1-0.1-1.5
			c-0.7-21.3-1.5-42.5-2.1-63.8h87c-0.2,2.1-0.6,4.3-1,6.4c-5.6,20.9-11.3,41.8-17,62.6c-1.3,4.7-2.7,9.3-4,14c-2.3,9-4.7,18-7,27
			c-1,1.7-1.8,3.5-2.5,5.3c-3.9,13.9-7.7,27.8-11.5,41.7c-2.3,8.7-4.7,17.3-7,26c-2.6,9-5.3,18-7.7,27c-0.3,1.2,0.5,2.7,0.7,4l-4,13
			c-1.6,4.1-3.5,8.1-4.8,12.4c-4.7,15.8-9.3,31.6-13.6,47.5c-0.8,2.8,0.2,6.1,0.4,9.2l1,1c-0.1,5.8-0.5,11.5-0.2,17.3
			c0.5,10.2,1.4,21.9,2.2,32.2c-1.2-2.3-3.1-5.1-4.2-7.5c-3-6.4-6.3-13.6-9-20.1c-1.3-3-2.1-6.3-2.4-9.6c-0.4-4.2-1-7.2-5.4-9.1
			c-3.1-1.4-2.4-4.8-0.2-6.7c1.5-1.3,3.9-1.8,5.7-2.7c3.8-1.8,5.7-4.9,6.5-8.9c0.2-1.1,0.2-2.4,0.7-3.4c5.4-10.2,4.2-21.3,4.6-32.3
			c0.3-8.1,1.5-16.2,2.4-24.3c0.2-1.5,0.4-3,0.5-4.5c-0.1-16.1,0.3-32-2.6-48c-0.4-3.1-0.5-6.6-0.2-9.7c0.3-5.5-0.4-6.9-5.8-7
			c-5-0.1-9.9,0.4-14.9,0.5c-4,0.1-8,0.1-11.9,0.1c-1.3,0-3-0.3-4.3-0.2c-6.6,0.5-7.1,1.8-5.4,8.3c1.4,5.3,0.2,11-1.7,16.2
			c-0.9,2.5-1.1,5.1-0.6,7.7c1.4,5.5,1,10.9,0.2,16.3c-0.4,2.8-1.1,5.8-0.4,8.4c2,7.8,0.9,15.5,0.9,23.3c0,8.6,1.1,17.2,1.9,25.8
			c0.2,2.3,0.9,4.6,2,6.7c3.4,6.3,2.7,12.8,2.1,19.5c-0.4,4.1-0.3,8.2-0.3,12.4c0,4.5,0.2,9,0.2,13.5c0,19.7,0.1,39.3,0,59
			c-0.1,7.3-0.8,14.6-0.8,21.9c0,7,0.6,14,0.8,20.9c0.3,12.6,0.4,25.3,0.6,37.9c0.1,4.2,2.2,6.2,7.1,6.8c8.4,1.1,16.8,2.2,25.2,3.4
			c5,0.7,7,2.4,6.9,7.4c-0.1,13.3,0.2,26.7-0.1,40c-0.1,3.1-2.6,5.2-5.5,5.4c-8.6,0.5-17.1,1-25.6,1.7c-2.2,0.2-4.2,1.4-6.3,2.3
			c-1.7,0.7-3.7,1.5-5.4,2.2c-0.2-3.8-0.5-8.5-0.6-12.3c-0.3-9-0.4-17.9-0.9-26.8c-0.2-2.9-1.6-5.8-2.4-8.7c0.4-3.2,0.9-6.5,1.3-9.7
			l-1.1-0.2c-0.5,1.5-1.1,3-1.5,4.5c-4.2,15.5-8.4,31.1-12.4,46.7c-1.1,4.4-1.5,9.1-2.2,13.6l-2,9c-2.6,9.3-5.3,18.6-7.8,28
			c-0.3,1.2,0.5,2.7,0.8,4c-4.1,16.4-8,32.9-12.4,49.3c-4.8,18-10.1,35.8-15.2,53.8c-7.9,28.3-15.8,56.6-23.6,85
			C62.7,771,58.9,786,55,801l-7,22c-2.1-5.8-0.4-11.5,1.4-16.6c2.9-8.2,2.5-16.4,2.4-24.7c-0.1-13.3-0.4-26.6-0.8-39.9
			c-0.6-20.5-1.3-40.9-2.1-61.3c0-1.7-0.4-3.3-1-4.8c-1.5-3.5-4.6-4.6-8.2-4.3c-3,0-5.5,2.4-5.7,5.4c-0.6,4.9-1.2,9.9-1.3,14.8
			c-0.3,16.4-0.5,32.9-0.6,49.3c0,5,0.8,10,0.8,14.9c0.1,14.7-0.1,29.3,0.1,44c0.2,17,0.6,33.9,1,50.9c0.2,7.5,0.6,15,1,22.4
			c0.3,5.8,1.5,6.9,7.2,7.3c9.6,0.7,10.6-0.2,10.7-9.8c0.1-10.3,2.6-20,6.3-29.6c2-5.6,3.7-11.4,4.8-17.3c0.9-4.1,2.2-7.9,5.1-10.8
			c0.3,0.1,0.7,0.2,1,0.3c0.1,0.1,0.3,0.2,0.3,0.3c0.3,0.4,0.4,0.9,0.5,1.4C71,842,71,869,71,896H19c0.4-0.5,0.9-1,1.4-1.4
			c4-2.5,5-5.6,3.3-10.2c-0.9-2.5-0.5-5.6-0.5-8.4c0-7-0.1-13.9,0.1-20.9c0.1-3.3,0-6.9,1.2-9.8c4.6-10.9,4.2-22.3,4.2-33.7
			c0-5.6-0.5-11.3-0.4-16.9c0.1-7.3,0.9-14.6,0.7-21.9c-0.1-6.7-1.2-13.3-1.8-19.9l-1.7-0.2c-0.6,1.2-1,2.4-1.4,3.7
			c-0.5,2.1-0.4,4.4-1.2,6.4c-3.9,9.7-3.1,19.8-3.4,29.9c0,1.6,0,3.5-0.9,4.6c-0.5,0.6-2.7-0.1-4.3-0.3c0,6.5,0,13.1,0,19.6
			c0,3.5-0.2,6.9-0.3,10.4c-0.1,2-0.4,4-0.4,5.9c0.1,11.1,0.3,22.3,0.4,33.4c0,2.8-0.5,5.6-0.4,8.4c0.4,7.1,1,14.2,1.5,21.4H4
			c0-13.8,0.1-27.7,0-41.5c-0.1-6.5-0.6-13-0.8-19.4c-0.3-8-1.1-16-0.4-23.9c0.8-8.9,3-17.7,4.7-26.5c0.9-4.4,2-8.8,3.1-13.1
			c1.3-5.5,2.9-10.9,3.7-16.4c0.9-6.4,0.6-13,1.8-19.3c3.4-18,7.3-35.9,10.8-53.8c0.3-1.6-0.5-3.4-0.8-5.1
			c1.9-9.6,1.1-19.2,0.3-28.8c-0.6,0.6-1,1.4-1.2,2.2c-2.1,10.2-4.1,20.5-6.3,30.8c-1.5,7-3.2,13.9-4.9,20.8c-0.4-1.3-0.7-2.7-1-4
			c0.4-3,0.6-6,1.2-8.9c3.3-15.8,6.7-31.6,10.2-47.4c1.4-6.5,2.3-6.9,8.9-6.8c2.8,0.1,5.7,0.1,8.5,0c4.5-0.2,5.9-1.6,6.2-6.1
			c0.1-2.3-0.4-4.6-0.4-7c0-9-0.1-18,0.2-26.9c0.1-2.1,0.1-3.5-1.9-4.5c-2.7-1.3-2.5-3.5-2-6c7-31.7,14.1-63.4,20.8-95.2
			c5.4-25.7,10.2-51.6,15.6-77.4c5.6-27.1,11.7-54.1,17.3-81.1c5.6-26.9,11-53.9,16.4-80.8c4.5-22.4,8.9-44.8,13.4-67.1
			c1.8-9,4.6-17.8,5.8-26.8c1.1-8.5,0.6-17.3,0.6-25.9c0-4.4-0.4-8.8-1.3-13.1c-5.2,24.7-10.4,49.4-15.5,74.1L116,187z M77.5,697.8
			l1.6,0.1c2-6.5,5.6-12.8,1.4-20c-0.7-1.1-0.3-2.9-0.3-4.4c0-7.8,0.1-15.6-0.1-23.4c-0.2-8-0.9-15.9-1.1-23.9
			c-0.2-7,0.1-13.9,0.1-20.9c0-3-0.6-5.9-0.7-8.9c-0.8-12.1-1.7-24.2-2.2-36.3c-0.4-10.1-0.2-20.2-0.4-30.4c0-3.1-0.5-6.2-0.7-9.3
			l-1.2,0.1c0,8.6-0.1,17.2,0,25.8c0.1,7.5,0.6,14.9,0.7,22.4c0,5-0.6,10-0.5,15c0.1,8.8,0.6,17.6,0.9,26.4c0.1,3.5,0,7,0.2,10.5
			c0.6,16.6,1.3,33.2,1.8,49.9C77.2,679.6,77.3,688.7,77.5,697.8z"/>
		<path class="st1" d="M414,250c-13.7-3.2-13.4-3.1-19.3,9.6c-4.8,10.4-3.8,21.1-3.2,31.9c0,1.2,0.4,2.3,0.4,3.5
			c0.4,7.4-1.3,8.9-8.5,7.6c-5.5-1-5.8-0.5-8.5,4.4c-6.7,12-4.9,24.8-4.5,37.6c0,1,0.4,2,0.4,3c0.2,4.6-1.6,6-6.2,4.8
			c-9.6-2.5-9.6-2.5-13.2,6.7c-4.6,11.6-8,23.3-5.7,36c0.8,4.3-0.9,5.4-5.1,3.3c-2.9-1.5-4.6-0.8-6,2c-2.4,4.9-4,9.8-3.8,15.3
			c0.4,7.5,0.4,15,0.4,22.5c0,1.4-0.5,2.8-1.5,3.8c-0.6,0.5-2.5-0.1-3.6-0.7c-6.4-3.6-7.1-3.3-9.7,3.7c-3,7.9-5,15.8-3.7,24.3
			c0.5,3.8-0.1,7.7-0.2,12.5c-2.5-1.4-3.9-2.2-5.4-2.9c-3.4-1.7-5.2-1.3-5.9,2.4c-1.1,5.7-1.7,11.4-1.9,17.2
			c-0.2,5.5,0.4,11,0.4,16.4c-0.1,1.3-0.4,2.5-0.9,3.7l-7-1.4l-3.9-3.5c-1,1.4-2.5,2.7-2.9,4.2c-1.1,3.5-1.8,7-2.1,10.7
			c-0.3,6.1,0,12.3-0.1,18.5c0,1.7-0.4,3.4-0.7,6c-2-1.5-3.1-2.4-4.3-3.2c-2.9-2-4.5-1.6-5.8,1.6c-0.7,1.5-1.1,3.1-1.2,4.8
			c-0.4,7.8-0.7,15.6-1,23.4c-0.1,1.9-0.4,3.7-0.7,5.5l-1.1,0.3c-1.2-1.3-2.4-2.6-3.6-3.8c-2.5-2.6-4.4-2.5-5.6,0.8
			c-1.1,2.8-1.7,5.7-1.9,8.7c-0.3,5.8,0,11.7-0.2,17.5c-0.1,2-1,3.9-1.6,5.9c-1.5-1-3-2.2-4.4-3.4c-2.4-2.5-3.8-2.5-5,0.8
			c-1.4,3.7-2.4,7.6-2.8,11.5c-0.5,5.1-0.1,10.3-0.1,15.5c-0.1,1.7-0.4,3.4-0.7,5.1c-2.6-2.8-4.4-4.7-6.6-7
			c-7.5,10.5-3.4,22.4-5.7,33.7c-1-0.5-1.2-1.4-1.8-1.9c-1.2-1-2.4-2-3.7-2.9c-1.1,1.4-2,2.8-2.8,4.4c-0.5,1.3-0.7,2.6-0.6,3.9
			c0,6,0.2,12,0.2,18c-0.1,1.4-0.4,2.8-0.8,4.1c-1.1-0.7-2.6-1.2-3.4-2.2c-2.9-3.5-3.9-3.6-5.6,0.5s-3.5,8.1-7.5,10.7l0.5-5.1
			c-3.9,0.5-3.5-1.8-2.5-4.2c2.8-6.9,5.6-13.9,8.5-20.8c8-19,16-38,24-57.1c6.4-15.3,12.8-30.7,19.1-46.1
			c6.4-15.5,12.6-31.1,19.1-46.7c1-2.5,2.9-4.7,4.3-7.1c0,1.8,0.4,3.7-0.2,5.3c-2.2,6.1-4.6,12.1-7,18.1c-0.6,1.5-1,3-1.6,4.4
			c1.1-0.1,1.4-0.5,1.6-1c5.4-12.7,10.8-25.4,16-38.1c1.3-3.1,2.1-6.5,3.1-9.8c1.4-2.1,2.6-4.2,3.7-6.4c6.7-16,13.4-32,20-48.1
			c2.6-6.4,4.9-13,7.3-19.5c1-1.9,2.2-3.7,3-5.7c8.1-19.3,16.1-38.7,24.3-58.1c5.8-13.8,11.8-27.5,17.6-41.3
			c7.9-18.9,15.7-37.8,23.5-56.7c5.2-12.5,10.3-24.9,15.5-37.4c3.3-8,6.7-15.9,10.1-23.9L414,250z"/>
		<path class="st1" d="M412,755c0,4.3,0.1,8.7-0.1,13c0,2-0.3,4-1,5.8c-1.2,2.9-2,5.5-0.2,8.5c0.5,0.8-0.3,2.3-0.5,3.5
			c-1.2-0.5-2.8-0.7-3.6-1.5c-0.8-1.1-1.3-2.3-1.3-3.7c-2-17-3.8-34-5.8-51c-1.7-15-3.7-30-5.4-45c-0.3-2.8,0-5.7,0-8.5
			c-0.7-24.6-1.3-49.2-2.1-73.7c-0.5-15.6-1.3-31.2-1.9-46.8c0-0.3,0-0.7,0-1c-3-11.1-0.9-22.1,0.5-33.1c0.5-3.9-0.4-7.9-0.5-11.9
			c-0.2-4.6,0.1-9.3-0.6-13.9c-1-7.6-2.7-15-4-22.6c-0.4-1.8-0.5-3.6-0.3-5.5c1.7-10.7-1.4-21.2-1.5-31.8c0-6.3,0.3-12.6,1-18.8
			c0.2-1.5,2.2-2.9,3.3-4.3c1,1.6,2.7,3,2.9,4.7c0.7,5.9,0.8,11.9,1.2,17.9c1.3,18.6,2.7,37.1,3.8,55.7c0.6,10.9,0.9,21.8,1.2,32.7
			c0.1,3.3-0.5,6.8,0.1,10c3.8,19.7,1,39.8,4.4,59.5c1.7,10.1,1.5,20.5,2.2,30.8c1.1,14.8,2.2,29.5,3.3,44.3
			c0.2,1.3,0.9,2.5,1.9,3.4c-1.1-5.5,1.3-9.7,4-13.8h1v54c-3.3,0.3-4.1,2.5-3.9,5.3c0.4,6.3,1.1,12.6,1.4,18.9S411.8,748.7,412,755z
			"/>
		<path class="st1" d="M121,896c5.8-14.2,11.5-28.4,17.3-42.6c3.7-9.1,7.5-18.2,11.1-27.3c1.2-3.1,2.5-4.7,6.5-5.4
			c10.7-2,21.3-0.7,31.8-0.5c6.9,0.2,13.7,2.5,20.5,4c3,0.7,4.4,2.8,4.7,5.7c0.7,8.8,1.6,17.5,1.9,26.3c0.1,3.9-0.7,7.9-1.5,11.8
			s-3,5.4-7.1,5.5c-3.8,0-7.6,0.4-11.3,1.3c-13,3.7-25.9,4.5-38.8,0c-2.8-12.7-1.9-25.5-2.1-38.3c-0.1-2-0.4-3.9-0.8-5.9l-1.4-0.1
			c-2.1,2.5-3.1,5.7-2.9,9c1.3,11.2-7.4,18.9-10.1,28.6c-0.2,0.7-1.2,1.1-1.8,1.6c1.3-4.8,2.6-9.6,3.9-14.4l-0.9-0.3L123,896H121z"
			/>
		<path class="st1" d="M291,896c-0.5-7-1.3-13.9-1.6-20.9c-0.3-6.8-0.1-13.6-0.3-20.4c-0.4-11.3-0.7-22.5-1.4-33.8
			c-1.1-17.3-2.4-34.5-3.6-51.8c-0.5-7-1.1-13.9-1.6-20.9c-0.5-6-1-11.9-1.4-17.9c-0.7-11.6-1.3-23.2-1.9-34.8c-0.2-2-0.3-4-0.1-6
			c1.7-11.9-1.5-23.5-2.5-35.2c-0.5-5.7,0.5-11.5,1.4-17.2c0.3-1.7,3-2.9,4.5-4.3c1.1,1.9,3,3.8,3.1,5.7c0.7,11.6,0.8,23.2,1.3,34.8
			c0.9,19.6,1.9,39.2,2.8,58.8c0.5,9.6,0.8,19.2,1.2,28.8c0.7,20.1,1.3,40.2,2.1,60.3c0.6,16.1,1.2,32.2,2,48.3
			c0.4,8.8,1.3,17.6,2,26.4L291,896z"/>
		<path class="st1" d="M277,896c-0.9-11.9-2-23.8-2.8-35.8c-0.9-12.4-1.5-24.9-2.2-37.3c-0.5-8.3-0.7-16.6-1.2-24.9
			c-1.3-20.7-4.1-41.3-3.9-62.2c0.1-8.1-1.4-16.2-1.9-24.4c-0.5-8.3-0.6-16.6-1-24.9c-0.1-3.3-0.7-6.6-1.7-9.7
			c-2.2-5.7-0.2-10.1,3.4-14.2c0.7-0.8,2.2-1.8,2.8-1.5c1.1,0.6,1.9,1.6,2.2,2.9c0.5,2.8,0.8,5.6,0.9,8.4c0.3,8.6,0.4,17.2,0.6,25.8
			c0,3.2-0.1,6.3,0,9.5c0.9,15.7,2,31.5,2.8,47.2c0.8,15.5,1.4,30.9,2,46.4c0.4,11.2,0.6,22.5,1,33.7c0.7,20.3,1.4,40.6,2.1,60.8
			L277,896z"/>
		<path class="st0" d="M15,896c-0.5-7.1-1.1-14.2-1.5-21.4c-0.1-2.8,0.4-5.6,0.4-8.4c-0.1-11.1-0.3-22.3-0.4-33.4c0-2,0.3-4,0.4-5.9
			c0.1-3.5,0.3-6.9,0.3-10.4c0-6.5,0-13.1,0-19.6c1.6,0.2,3.9,0.9,4.3,0.3c0.9-1.1,0.8-3,0.9-4.6c0.3-10.1-0.5-20.2,3.4-29.9
			c0.8-2,0.7-4.3,1.2-6.4c0.4-1.3,0.8-2.5,1.4-3.7l1.7,0.2c0.6,6.7,1.7,13.3,1.8,19.9c0.2,7.3-0.6,14.6-0.7,21.9
			c-0.1,5.6,0.4,11.3,0.4,16.9c0.1,11.4,0.4,22.8-4.2,33.7c-1.2,2.9-1.1,6.5-1.2,9.8c-0.2,7-0.1,13.9-0.1,20.9
			c0,2.8-0.5,5.9,0.5,8.4c1.7,4.6,0.8,7.7-3.3,10.2c-0.5,0.4-1,0.9-1.4,1.4H15z"/>
		<path class="st1" d="M262,896c-0.7-8.3-1.3-16.6-2-24.8c-0.9-11.4-1.9-22.8-2.6-34.2c-0.3-4.6-0.1-9.3-0.2-14
			c-0.1-5.3-0.1-10.6-0.5-15.8c-0.7-9.6-2.2-19.2-2.6-28.8c-0.7-15.5-0.5-30.9-1.2-46.4c-0.4-7.1-2.5-14.1-3.1-21.2
			c-0.3-5.6,0.1-11.2,1-16.8c0.2-1.6,2.5-3,3.9-4.5c1,1.5,2.7,3,2.9,4.6c1.5,14.9,3.8,29.7,1.8,44.8c-0.1,1-0.1,2,0,3
			c0.5,10.1,1.1,20.2,1.7,30.3c1,16.8,2,33.5,2.8,50.3c0.4,8,0.4,15.9,0.7,23.9c0.5,14.1,1.1,28.2,1.5,42.3c0.1,2.5-0.6,4.9-0.9,7.4
			L262,896z"/>
		<path class="st1" d="M247,896c0-10.3,0.2-20.7-0.1-31c-0.2-9-0.5-17.9-1.3-26.8c-1.3-14.7-3.1-29.4-4.4-44.1
			c-0.4-4.4,0.9-9,0.6-13.4c-0.7-11.9-1.8-23.8-2.6-35.8c-0.6-7.4-1.1-14.9-1.4-22.3c0.1-1.8,0.8-3.5,2-4.9c0.9-0.9,2.2-1.4,3.4-1.2
			c1,0.2,1.7,1.7,2.4,2.7c0.2,0.5,0.3,1,0.2,1.5c0.6,12.1,1.1,24.2,1.7,36.3c0.3,6.6,1.2,13.2,1.3,19.9c0.2,17.8-0.3,35.5,0.2,53.3
			c0.5,19.4,1.8,38.8,2.8,58.2c0.1,2.5,0.1,5,0.1,7.5L247,896z"/>
		<path class="st1" d="M234,896c1.9-12,0.8-23.9-0.4-35.8c-0.4-4.6-0.4-9.3-0.6-13.9c-0.9-14.2-1.9-28.5-2.7-42.8
			c-0.5-8.6-0.5-17.2-1.2-25.8c-0.6-8-1.8-15.8-2.8-23.8c-0.6-4.2-0.1-8,3.3-10.9c2-1.8,3.6-1.5,4.5,1c0.5,1.2,0.7,2.6,0.8,3.9
			c0.1,12.6,0,25.2,0.2,37.7c0.2,8.6,0.9,17.2,1.3,25.8c0.2,3.2,0.4,6.3,0.6,9.5c0.7,13.4,1.3,26.9,1.9,40.3
			c0.4,9.1,0.9,18.2,1.1,27.3c0.1,2.5-0.6,4.9-0.9,7.4H234z"/>
		<path class="st1" d="M223,896c-1-11.9-1.6-23.9-3.1-35.7c-1.8-14.2,0-28.5-2.4-42.8c-1.7-10.2-0.6-20.8-1-31.3
			c-0.3-4-0.9-7.9-1.7-11.8c-0.5-2.8,2.6-8.5,5.3-9.1c0.9,0,1.7,0.5,2.2,1.2c0.4,1.6,0.7,3.2,0.7,4.9c0.7,19.3,1.3,38.6,2.1,57.8
			c0.5,13.5,1.4,26.9,1.9,40.4c0.3,8.8,0.1,17.6,0.1,26.4H223z"/>
		<path class="st2" d="M414,200c-3.4,7.9-6.8,15.9-10.1,23.9c-5.2,12.4-10.3,24.9-15.5,37.3c-7.8,18.9-15.6,37.8-23.5,56.7
			c-5.8,13.8-11.8,27.5-17.6,41.3c-8.1,19.3-16.1,38.8-24.3,58.1c-0.8,2-2,3.8-3,5.7c0.8-3,1.8-5.9,2.5-8.9c0.3-2,0.5-4.1,0.5-6.1
			c1.3-3.3,2.7-6.7,4-10c0.9-0.5,2.4-0.7,2.7-1.4c3.2-7.5,6.2-15.1,9.3-22.6l9.1-23c1.4-2.8,3-5.6,4.1-8.5
			c3.4-8.8,6.6-17.7,9.8-26.5c1.3-4.7,2.7-9.3,4-14c1-0.8,2.6-1.3,3-2.4c4.8-10.2,10-20.3,12-31.6c1.8-4.9,3.6-9.9,5.4-14.8
			c0.6-1.7,1.1-3.4,1.6-5.2c1.4-1.5,3.4-2.7,4.2-4.4c2.7-5.8,5-11.8,7.3-17.8c2-5.2,3.6-10.5,5.5-15.8l9-22V200z"/>
		<path class="st2" d="M26,677c0.3,1.7,1.1,3.5,0.8,5.1c-3.5,18-7.4,35.8-10.8,53.8c-1.2,6.3-0.9,12.9-1.8,19.3
			c-0.8,5.5-2.4,10.9-3.7,16.4c-1,4.4-2.2,8.7-3.1,13.1c-1.7,8.8-3.9,17.6-4.7,26.5c-0.7,7.9,0.1,15.9,0.4,23.9
			c0.2,6.5,0.8,13,0.9,19.4c0.1,13.8,0,27.7,0,41.5H0V794c1.1-2.9,2.1-5.8,2.9-8.8C10.7,749.2,18.4,713.1,26,677z"/>
		<path class="st1" d="M156,878c-2,6-4,12-6,18h-24l8-19c0.3,2,0.6,4.1,0.9,5.8c3.1-1.6,5.3-2.8,7.5-3.9c1.9-0.9,4.1-1.3,6-2.3
			c2.6-1.3,4.7-2,5.7,1.7C154.7,878.3,155.4,878.1,156,878z"/>
		<path class="st3" d="M275,0c-2.2,8.5-5,17-6.5,25.6c-1.3,7.4-1.1,14.9-1.5,22.4l-1.8-8.4c-1.4,1.3-2.3,3-2.8,4.8
			c-4.2,14.5-8.2,29.1-12.4,43.6c-1.5,5.1-3.3,10.1-5,15.1c0.8-4.7,1.6-9.4,2.5-14.1c0.5-2.3,1.5-4.6-1.5-6c1.3-4.7,2.7-9.3,4-14
			c3.1,2.7,2.8-0.7,3.1-1.9c3.9-14,7.7-28,11.4-42.1c2.2-8.3,4.3-16.6,6.5-25L275,0z"/>
		<path class="st4" d="M414,658h-1c0-112.7,0-225.4,0-338.2c-0.2-3-0.5-5.9-1-8.8l2-4V658z"/>
		<path class="st5" d="M412,755c-0.2-6.3-0.2-12.5-0.5-18.8s-1-12.6-1.4-18.9c-0.2-2.8,0.7-5,3.9-5.3v184h-90c2.4-0.5,4.9-0.8,7.3-1
			c24.8-0.1,49.6,0,74.4,0c6.9,0,7.3-0.4,7.3-7.4c0-41.9,0-83.9,0-125.8C412.8,759.5,412.5,757.3,412,755z"/>
		<path class="st3" d="M14,702c-1.3,7.5-2.9,15-3.9,22.5c-1.8,12.9-3.3,25.9-5.1,38.9c-0.2,1.8,0.2,3.8-2.8,4.4
			C1.2,768,0.7,771.2,0,773v-32c0.6-2.4,1.2-4.8,2-7.1c0.7-2,1.3-4.3,2.7-5.7c2.8-3,3.7-6.4,4.4-10.3c1.1-6.7,2.6-13.3,4-19.9
			C13.3,699.3,13.7,700.7,14,702z"/>
		<path class="st2" d="M271,0c-2.1,8.3-4.2,16.7-6.5,25c-3.7,14-7.6,28-11.4,42.1c-0.4,1.3,0,4.6-3.1,1.9
			c5.7-20.9,11.3-41.7,17-62.6c0.4-2.1,0.8-4.2,1-6.4H271z"/>
		<path class="st4" d="M414,185c-0.5-2.8-0.8-5.5-1-8.3c0-58.9,0-117.8,0-176.7c0.5,1.3,0.8,2.6,1,4c0,47.2,0,94.3,0,141.5V185z"/>
		<path class="st2" d="M134,877l-8,19h-3l17-40.7l0.9,0.3c-1.3,4.8-2.6,9.6-3.9,14.4C136,872.3,135,874.7,134,877z"/>
		<path class="st1" d="M352.5,541.7c0,1.3-0.1,2.7,0,4c0.5,9.1,1.4,18.2,1.4,27.3c-0.2,19.8,1.7,39.5,3.5,59.2
			c0.8,8.6,0.9,17.2,1.5,25.8s1.8,17.2,2.2,25.8c0.4,9.2,2.8,18.4,0.1,27.7c-0.6,2.2-0.2,4.6-0.1,7c1.2,21.5,2.6,43.1,3.7,64.6
			c0,3.8-0.3,7.7-1.1,11.4c-0.2,1.1-1.6,2-2.5,2.9c-0.6-1.2-2-2.5-1.8-3.6c1.9-10.8-2-20.7-4.3-30.9c-0.8-3.4-1.4-6.8-1.7-10.3
			c-1.6-20.5-3.1-41-4.4-61.6c-0.3-4.8,1.1-9.6,0.8-14.4c-1.2-18.7-2.8-37.5-4.1-56.2c-1-14.7-1.8-29.5-2.8-44.3
			c-0.7-10.1-1.7-20.2-2.5-30.3c-1.1-13.9-4.1-27.8-1.3-41.7c1-5.1,3.7-9.9,6.1-14.5c1.1-2.2,3.1-1.7,3.9,0.8
			c0.3,1.1,0.5,2.3,0.6,3.4c1,15.1,2.1,30.2,3.1,45.3c0,0.8,0,1.7,0,2.5L352.5,541.7z"/>
		<path class="st1" d="M369.9,605.3c-1.1-9-2.4-18.1-3.3-27.2c-0.4-3.6,0.3-7.2,0.4-10.8c0.1-3.3,0.6-6.6,0.1-9.8
			c-1.1-8.2-2.8-16.4-3.7-24.6c-0.4-3.7,0.9-7.6,1.1-11.4c1-15.9-0.5-31.5-3.1-47.2c-0.9-5.2-1.4-10.6,2.5-15.3
			c0.9-1-0.3-3.1,0.3-4.5c0.6-1.1,2.3-3.1,3.2-4c0.8,1.1,2.6,2.9,2.8,4.1c0.7,6.6,1.1,13.6,1.6,20.2c1.2,17.3,1.8,34.6,2.7,51.9
			c0.6,10.6,0.2,21.2,0.7,31.8c0.4,8.1,1.5,16.2,2,24.4c0.8,12.9,1.3,25.8,1.9,38.7c0.1,2.5,0.7,5,0.7,7.5c0.1,5.1,0,10.3,0.1,15.4
			c0.1,4-0.2,8.1,0.6,11.9c2.9,12.4,3.4,25,3.3,37.7c0,9.3,0.5,18.6,1.6,27.8c1.5,12.7,0.9,25.6,1.4,38.4c0.2,6,1,11.9,1.5,17.8
			c0.3,2.1,0.4,4.3,0.3,6.5c-0.1,1.1-1.2,2.1-1.9,3.2c-0.8-0.9-2.2-1.7-2.4-2.7c-0.9-4.6-2-9.2-2-13.8c-0.1-7.7,0.3-15.2-4-22.2
			c-1.4-2.2-1.3-5.5-1.3-8.3c-0.1-6.8-0.4-13.5-2.8-20.1c-1.6-4.5-0.9-9.8-1.4-14.8c-0.9-9.6-2.2-19.2-2.7-28.8
			c-0.2-4.2,1-8.5,1.5-12.8c0.2-1.6,0.7-3.5,0.1-4.9c-3-7.7-2-15.7-2-23.6c0-10.1-0.8-20.2-1.3-30.4L369.9,605.3z"/>
		<path class="st1" d="M333.5,546.3c0.5,20,0.9,39.9,1.7,59.9c0.3,8.5,1.6,16.9,2.2,25.3c0.2,2.6-0.2,5.3-0.3,7.9
			c-0.1,16.6,0.6,33.3,2.2,49.8c1.6,18,1.2,36.2,1.5,54.3c0,1.2-1.5,2.5-2.4,3.8c-0.8-1.3-1.9-2.5-2.3-3.9c-1.2-3.6-2.1-7.3-2.7-11
			c-0.7-5.7-1-11.5-1.1-17.3c-0.2-9.5,0.6-19-0.2-28.4c-1.2-13.7-4.9-27.4-4.8-41.1c0.3-21-1.4-41.8-3.9-62.6
			c-1.1-8.9-1-17.9-1.5-26.9c0-2.5-0.2-5-0.6-7.5c-1.5-7.3,0.5-13.5,5.2-19c0.9-0.8,2-1.5,3.1-2c0.6,1.1,1.7,2.1,1.8,3.2
			c0.7,5.1,1.1,10.2,1.7,15.3L333.5,546.3z"/>
		<path class="st1" d="M316.6,599.8c1.1,17.6,2.4,35.1,3.1,52.7c0.6,15.4,0.4,30.8,0.8,46.2c0.2,7.6,1.3,15.2,1.7,22.8
			c0.6,10.1,0.9,20.2,1.1,30.4c0,1.2-1.6,2.4-2.4,3.6c-0.9-1-2.2-2-2.5-3.2c-2-8.5-3.4-17-1.9-25.7c0.2-1.3,0.2-2.7,0-4
			c-0.9-8.6-2-17.1-2.7-25.7c-1.3-16.2-2.5-32.4-3.6-48.7c-0.6-6.8-0.7-13.6-0.3-20.4c0.9-11.7-2.9-22.7-3.9-34.1
			c-0.8-8.6-1.8-17.7,3.5-25.6c0.8-1.3,2.3-2.2,3.4-3.2c0.8,1.3,2.1,2.6,2.2,4c0.9,10.3,1.6,20.5,2.4,30.8L316.6,599.8z"/>
		<path class="st1" d="M298.4,728c-0.6-7.6-1.1-15.3-1.7-22.9c-1.4-18.5-2.7-37.1-4.1-55.6c-0.8-10.8-1.5-21.5-2.4-32.2
			c-0.4-4.8,0-9.4,3.2-13.2c1-1.2,3-1.6,4.6-2.3c0.6,1.4,1.8,2.8,1.9,4.3c0.8,16.1,1.4,32.2,2.1,48.2c0.3,6.5,1.1,12.9,1.5,19.3
			c0.3,5,0.2,9.9,0.4,14.9c0.3,11.5,0.6,23,1.1,34.4c0.3,7.5,1.2,14.9,1.5,22.4c0.2,6.5,0.2,12.9-0.1,19.4c-0.1,1.5-1.6,2.9-2.5,4.4
			c-0.9-1.4-2.3-2.8-2.5-4.3c-1.6-12.2-2.9-24.4-4.3-36.6L298.4,728z"/>
		<path class="st1" d="M196,347.6c0-4.5,0-10.6,0-15.1c0-3.4,1.4-6.6,4-8.7c2.2-2,3.7-4.5,4.4-7.4c1-5.7,1-11.6,1.7-17.3
			c0.3-2.7,0.7-6.1,2.5-7.8c6.3-5.9,6.9-13.3,7.4-21c0.3-4.5,0.7-8.9,1-13.3c0.5,0.2,1,0.3,1.4,0.3c8.5,0,10.2,1.8,10.6,10.5
			c0.6,13.8,2.6,27.2,3,40.9c0.3,8.7-0.3,19.4-0.3,28.1h-3.1c-2.2-19.7-1.5-41.2-4.6-61c-2.3,8.8-5.8,17.1-5.6,26.3
			c0.3,9.1,0.3,19.6-0.5,28.7c-3.6-4.6-1-10.2-3.6-16.1c-0.5,4.3-0.4,6.7-3.8,8.4c-0.7,0.3-0.5,1.4-0.6,2.5
			c-0.6,4.7-3.5,9.8-7.1,12.7C200.1,340.6,198.1,344.7,196,347.6z"/>
		<path class="st3" d="M56,804c1.6-4.2,2.9-8.5,4.8-12.5c1.2-2.7,2.8-5.2,4.9-7.3c1.1-1.1,3.5-0.8,5.3-1.2c-0.2,2.8-0.7,5.6-1.3,8.3
			c-3.9,13.7-7.8,27.3-12,41c-1.5,5-3.8,9.9-5.7,14.8c-2.1-5.3-2.6-11.1-1.3-16.6C52.4,821.6,54.2,812.8,56,804z"/>
		<path class="st1" d="M290.1,344.3c-2.5-5.7-6.1-77.6-4.1-80.8C289.1,290.3,290.5,317.3,290.1,344.3z"/>
		<path class="st1" d="M273.9,347.3c-2.5-6-5.6-74.8-3.6-79.1C273,270.9,275,342.4,273.9,347.3z"/>
		<path class="st2" d="M320,423c-2.4,6.5-4.7,13-7.3,19.5c-6.6,16.1-13.2,32.1-20,48.1c-1.1,2.2-2.3,4.4-3.7,6.4v-1
			c1.5-3.8,2.9-7.6,4.4-11.4c0.7-1.6,1.9-3.3-0.4-4.6l2-5c1.3-1.1,3.2-2,3.8-3.4c2.6-6.1,4.8-12.4,7.2-18.6l7-17L320,423z"/>
		<path class="st1" d="M306.6,322.4c-0.8-17.3-1.6-34.6-2.5-51.9l1.7-0.2c2.4,2.9,0.2,6.6,0.7,9.8c0.5,3.4,0.6,6.9,0.9,10.3
			c0.2,3.6,0.4,7.2,0.6,10.9s0.6,6.9,0.8,10.4s0,7.1,0,10.7L306.6,322.4z"/>
		<path class="st1" d="M405,210c-1.8,5.3-3.5,10.6-5.5,15.8c-2.3,6-4.6,12-7.3,17.8c-0.8,1.8-2.8,3-4.2,4.4
			c2.2-6.3,3.9-12.8,6.6-18.8C397.6,222.6,401.5,216.4,405,210z"/>
		<path class="st1" d="M362,316c-3.3,8.9-6.5,17.7-9.8,26.5c-1.1,2.9-2.7,5.7-4.1,8.5l-1.1-3c3.2-8.8,6.3-17.6,9.9-26.2
			C357.8,319.5,360.2,317.9,362,316z"/>
		<path class="st2" d="M289,496v1c-1,3.3-1.9,6.6-3.1,9.8c-5.3,12.7-10.7,25.4-16,38.1c-0.2,0.4-0.5,0.8-1.6,1c0.5-1.5,1-3,1.6-4.4
			c2.3-6,4.8-12,7-18.1c0.6-1.6,0.2-3.5,0.2-5.3l3-7c1.5-1.7,2.8-3.5,4.1-5.4C285.9,502.5,287.4,499.2,289,496z"/>
		<path class="st1" d="M381,268c-2,11.3-7.3,21.4-11.9,31.7c-0.5,1-2,1.6-3,2.4c4-10.1,7.9-20.2,12-30.3
			C378.6,270.3,380,269.2,381,268z"/>
		<path class="st3" d="M289,496c-1.6,3.2-3.1,6.5-4.9,9.6c-1.2,1.9-2.6,3.7-4.1,5.4c-0.1-0.8-0.6-1.8-0.3-2.4
			c4-9.3,8.1-18.5,12.2-27.7c0.2-0.4,0.8-0.6,1.1-0.9c2.3,1.3,1.1,3,0.4,4.6C291.9,488.4,290.5,492.2,289,496z"/>
		<path class="st3" d="M320,423l-7,13l-2-2c2.5-6.2,4.8-12.4,7.5-18.5c1.2-2.7,3-5,4.5-7.5c0,2-0.2,4.1-0.5,6.1
			C321.8,417.1,320.8,420,320,423z"/>
		<path class="st1" d="M339,374c-3.1,7.6-6.1,15.1-9.3,22.6c-0.3,0.7-1.8,0.9-2.7,1.4c1.6-9.3,5.5-17.8,10-26L339,374z"/>
		<path class="st1" d="M306,453c-2.4,6.2-4.6,12.5-7.2,18.6c-0.6,1.4-2.5,2.3-3.8,3.4c2.2-7.7,4.1-15.5,9-22L306,453z"/>
		<path class="st6" d="M325,312.7c-2.5-10.2-1.5-20.6-2-31l1.6-0.1c0.6,10.3,1.2,20.7,1.8,31L325,312.7z"/>
		<path class="st7" d="M78,382c-0.7,4.4-1.2,8.9-2.1,13.3C68.3,434.2,60.7,473.1,53,512l-1-3c1.6-9.3,3.1-18.7,5-28
			c6.6-34,13.3-68,20-102L78,382z"/>
		<path class="st8" d="M116,187l1,4c-4.3,21.4-8.7,42.8-13,64.2c-0.3,1-0.6,1.9-1,2.8l0,0c-0.2-1.6-0.8-3.3-0.5-4.8
			c4.1-21.3,8.3-42.6,12.6-63.9C115.3,188.5,115.6,187.7,116,187z"/>
		<path class="st8" d="M52,509l1,3c-2.8,14.6-5.6,29.2-8.4,43.8h-1.3c-0.2-0.7-0.8-1.4-0.6-1.9C45.8,538.9,48.9,523.9,52,509z"/>
		<path class="st9" d="M78,382c-0.3-1-0.7-2-1-3l8-39.6l1.9,0.4C83.9,353.8,81.9,368.1,78,382z"/>
		<path class="st10" d="M103,258c-2,11.1-4,22.2-6,33.3l-1.3-0.1c0.2-2.5,0.3-5,0.7-7.4c1.3-7,2.7-14,4.2-21
			C101,261.1,102.2,259.6,103,258L103,258z"/>
		<path class="st2" d="M77.5,697.8c-0.2-9.1-0.2-18.2-0.5-27.2c-0.5-16.6-1.2-33.2-1.8-49.9c-0.1-3.5-0.1-7-0.2-10.5
			c-0.3-8.8-0.7-17.6-0.9-26.4c-0.1-5,0.6-10,0.5-15c-0.1-7.5-0.6-14.9-0.7-22.4c-0.1-8.6,0-17.2,0-25.8l1.2-0.1
			c0.2,3.1,0.7,6.2,0.7,9.3c0.2,10.1,0,20.2,0.4,30.4c0.5,12.1,1.4,24.2,2.2,36.3c0.2,3,0.7,5.9,0.7,8.9c0.1,7-0.2,13.9-0.1,20.9
			c0.2,8,0.9,15.9,1.1,23.9c0.2,7.8,0.1,15.6,0.1,23.4c0,1.5-0.4,3.3,0.3,4.4c4.2,7.1,0.6,13.5-1.4,20L77.5,697.8z"/>
		<path class="st3" d="M226,165c-0.2,3.2,0.3,6.6-0.6,9.7c-8.7,32.1-17.6,64.1-26.5,96.1c-1.9,6.9-3.8,13.8-5.9,20.6
			c-0.6,2-2,3.8-3,5.7l-1-1c1.1-2.1,2-4.2,2.7-6.4c4-14.9,8-29.8,11.7-44.7c1.5-5.9,2.4-12,3.6-18l4-13l8-30L226,165z"/>
		<path class="st11" d="M240,114l-1-4c2.3-9,4.7-18,7-27c3,1.3,2,3.6,1.5,6c-0.9,4.7-1.7,9.4-2.5,14.1L240,114z"/>
		<path class="st12" d="M125,536c0.3,1.4,1,3,0.7,4.3c-2.4,9.3-5.1,18.5-7.7,27.7c-0.3-1.3-1.1-2.8-0.8-4
			C119.7,554.6,122.4,545.3,125,536z"/>
		<path class="st13" d="M229,158c-0.4-1.3-1.3-2.8-1-4c1.5-6.4,3.3-12.8,5.2-19.2c0.4-1.5,1.9-2.6,2.9-3.9
			C236.4,140.7,233.1,149.5,229,158z"/>
	</g>
</g>
</svg>
