<svg width="21" height="22" viewBox="0 0 21 22" fill="none" xmlns="http://www.w3.org/2000/svg">
<path d="M1.57474 0.275085C0.70519 0.275085 0 0.98023 0 1.84977C0 2.71932 0.70519 3.42451 1.57474 3.42451C2.44428 3.42451 3.14947 2.71927 3.14947 1.84977C3.14947 0.98023 2.44428 0.275085 1.57474 0.275085Z" fill="#898989"/>
<path d="M6.72861 3.6996H19.1502C20.1718 3.6996 21 2.87145 21 1.8498C21 0.828156 20.1718 0 19.1502 0H6.72861C5.70696 0 4.87881 0.828156 4.87881 1.8498C4.87881 2.87145 5.70696 3.6996 6.72861 3.6996Z" fill="#898989"/>
<path d="M1.57474 6.10471C0.70519 6.10471 0 6.80985 0 7.6794C0 8.54894 0.70519 9.25413 1.57474 9.25413C2.44428 9.25413 3.14947 8.54894 3.14947 7.6794C3.14947 6.80985 2.44428 6.10471 1.57474 6.10471Z" fill="#898989"/>
<path d="M19.1502 5.82965H6.72861C5.70696 5.82965 4.87881 6.65781 4.87881 7.67945C4.87881 8.7011 5.70696 9.52925 6.72861 9.52925H19.1502C20.1718 9.52925 21 8.7011 21 7.67945C21 6.65781 20.1718 5.82965 19.1502 5.82965Z" fill="#898989"/>
<path d="M1.57474 11.9344C0.70519 11.9344 0 12.6395 0 13.509C0 14.3786 0.70519 15.0838 1.57474 15.0838C2.44428 15.0838 3.14947 14.3786 3.14947 13.509C3.14947 12.6395 2.44428 11.9344 1.57474 11.9344Z" fill="#898989"/>
<path d="M19.1502 11.6592H6.72861C5.70696 11.6592 4.87881 12.4874 4.87881 13.509C4.87881 14.5307 5.70696 15.3588 6.72861 15.3588H19.1502C20.1718 15.3588 21 14.5307 21 13.509C21 12.4874 20.1718 11.6592 19.1502 11.6592Z" fill="#898989"/>
<path d="M1.57474 17.764C0.70519 17.764 0 18.4692 0 19.3387C0 20.2082 0.70519 20.9135 1.57474 20.9135C2.44428 20.9135 3.14947 20.2082 3.14947 19.3387C3.14947 18.4692 2.44428 17.764 1.57474 17.764Z" fill="#898989"/>
<path d="M19.1502 17.489H6.72861C5.70696 17.489 4.87881 18.3171 4.87881 19.3388C4.87881 20.3604 5.70696 21.1886 6.72861 21.1886H19.1502C20.1718 21.1886 21 20.3604 21 19.3388C21 18.3171 20.1718 17.489 19.1502 17.489Z" fill="#898989"/>
</svg>
