<svg width="25" height="21" viewBox="0 0 25 21" fill="none" xmlns="http://www.w3.org/2000/svg">
<path d="M0.667922 20.9298C0.770015 20.9649 0.872107 21 1.00823 21C1.31451 21 1.62079 20.8244 1.79094 20.5083C3.93489 16.2938 6.35108 12.8169 13.7698 13.0627V16.2236C13.7698 16.6802 14.0761 17.1367 14.4845 17.3123C14.8588 17.4879 15.2672 17.3826 15.5734 17.0665L24.6597 9.16436C24.8979 8.98876 25 8.70779 25 8.39171C25 8.07562 24.8639 7.82978 24.6257 7.61905L15.5394 0.208606C15.2331 -0.0372381 14.7907 -0.0723583 14.3824 0.138365C14.008 0.349089 13.7698 0.700295 13.7698 1.12174V4.31772C1.72288 5.72254 0.633891 14.7485 0.19149 18.6469C0.123428 19.1035 0.0893972 19.5249 0.0213355 19.8059C-0.0807572 20.2625 0.19149 20.7542 0.667922 20.9298ZM14.1782 5.68742C14.6206 5.6523 15.131 5.16061 15.131 4.6338V1.68367L23.4005 8.46195L15.131 15.6617V12.7115C15.131 12.1847 14.6546 11.693 14.1441 11.6579C6.96363 11.3418 3.86682 14.2217 1.65482 17.8391C2.19931 13.7652 3.79876 6.77616 14.1782 5.68742Z" fill="white"/>
</svg>
