<svg width="28" height="27" viewBox="0 0 28 27" fill="none" xmlns="http://www.w3.org/2000/svg">
  <path d="M21,13h-6V7c0-0.6-0.4-1-1-1s-1,0.4-1,1v6H7c-0.6,0-1,0.4-1,1c0,0.6,0.4,1,1,1h6v6c0,0.6,0.4,1,1,1s1-0.4,1-1
	v-6h6c0.6,0,1-0.4,1-1C22,13.4,21.6,13,21,13z" fill="#AB4164"/>
  <path d="M18.6,27H1.3c-0.4,0-0.7-0.1-0.9-0.4C0.1,26.4,0,26,0,25.7V8.1C0,3.6,3.6,0,8,0h13.4c2.5,0,4,0.3,5,0.9
	C27.5,1.7,28,3.1,28,5.2V18c0,2.1-1.1,4.4-3.1,6.2C23,25.9,20.7,27,18.6,27z M2,25h16.6c1.6,0,3.5-0.9,5-2.3
	c1.5-1.4,2.4-3.2,2.4-4.7V5.2c0-2.1-0.6-2.5-0.8-2.6C24.6,2.2,23.4,2,21.4,2H8C4.7,2,2,4.7,2,8.1V25z" fill="#AB4164"/>
</svg>
