<svg width="24" height="36" viewBox="0 0 24 36" fill="none" xmlns="http://www.w3.org/2000/svg">
<path d="M3.75379 34.9776L3.75372 34.9777C3.19184 35.5043 2.37063 35.6468 1.66407 35.3406C0.95733 35.0343 0.5 34.3376 0.5 33.5674V2.43253C0.5 1.36518 1.36518 0.5 2.43253 0.5H20.9969C22.0643 0.5 22.9295 1.36516 22.9296 2.43253C22.9296 2.43254 22.9296 2.43256 22.9296 2.43257V33.5674C22.9296 34.3376 22.4722 35.0343 21.7655 35.3406C21.5182 35.4478 21.257 35.4999 20.9976 35.4999H20.9975C20.5155 35.5 20.041 35.3199 19.6759 34.9777L19.6758 34.9776L12.0566 27.8394L11.7148 27.5191L11.3729 27.8394L3.75379 34.9776Z" fill="white" fill-opacity="0.7" stroke="black"/>
</svg>
