<svg width="11" height="18" viewBox="0 0 11 18" fill="none" xmlns="http://www.w3.org/2000/svg">
<path d="M6.75 0C7.74456 0 8.69839 0.395088 9.40165 1.09835C10.1049 1.80161 10.5 2.75544 10.5 3.75V12.75C10.5 13.4394 10.3642 14.1221 10.1004 14.7591C9.83653 15.396 9.44982 15.9748 8.96231 16.4623C8.4748 16.9498 7.89605 17.3365 7.25909 17.6004C6.62213 17.8642 5.93944 18 5.25 18C4.56056 18 3.87787 17.8642 3.24091 17.6004C2.60395 17.3365 2.0252 16.9498 1.53769 16.4623C1.05018 15.9748 0.66347 15.396 0.399632 14.7591C0.135795 14.1221 -1.02735e-08 13.4394 0 12.75V6.75H1.5V12.75C1.5 13.7446 1.89509 14.6984 2.59835 15.4017C3.30161 16.1049 4.25544 16.5 5.25 16.5C6.24456 16.5 7.19839 16.1049 7.90165 15.4017C8.60491 14.6984 9 13.7446 9 12.75V3.75C9 3.45453 8.9418 3.16194 8.82873 2.88896C8.71566 2.61598 8.54992 2.36794 8.34099 2.15901C8.13206 1.95008 7.88402 1.78434 7.61104 1.67127C7.33806 1.5582 7.04547 1.5 6.75 1.5C6.45453 1.5 6.16194 1.5582 5.88896 1.67127C5.61598 1.78434 5.36794 1.95008 5.15901 2.15901C4.95008 2.36794 4.78434 2.61598 4.67127 2.88896C4.5582 3.16194 4.5 3.45453 4.5 3.75V12.75C4.5 12.9489 4.57902 13.1397 4.71967 13.2803C4.86032 13.421 5.05109 13.5 5.25 13.5C5.44891 13.5 5.63968 13.421 5.78033 13.2803C5.92098 13.1397 6 12.9489 6 12.75V4.5H7.5V12.75C7.5 13.3467 7.26295 13.919 6.84099 14.341C6.41903 14.7629 5.84674 15 5.25 15C4.65326 15 4.08097 14.7629 3.65901 14.341C3.23705 13.919 3 13.3467 3 12.75V3.75C3 2.75544 3.39509 1.80161 4.09835 1.09835C4.80161 0.395088 5.75544 0 6.75 0V0Z" fill="#898989"/>
</svg>
