<svg width="28" height="27" viewBox="0 0 28 27" fill="none" xmlns="http://www.w3.org/2000/svg">
<path d="M26.9575 8.1384L26.9604 8.17108L26.9654 8.20351C26.9801 8.29867 27.112 9.25533 26.7401 10.8878L26.7401 10.8881C26.2052 13.2393 24.9692 15.3833 23.1564 17.0884L13.922 25.6322L4.84673 17.0908L4.84617 17.0903C3.032 15.3855 1.79497 13.24 1.25981 10.8881L1.25977 10.8879C0.887719 9.25418 1.02011 8.2982 1.03465 8.20546L1.03994 8.17174L1.04292 8.13773C1.41803 3.85014 4.28633 1 7.62389 1C9.84086 1 11.8558 2.2259 13.0515 4.34781L13.9131 5.87702L14.7892 4.35601C15.9917 2.26831 18.1046 1.00056 20.376 1.00056C23.7141 1.00056 26.5819 3.85066 26.9575 8.1384Z" stroke="#AB4164" stroke-width="2"/>
</svg>
