<svg width="21" height="20" viewBox="0 0 21 20" fill="none" xmlns="http://www.w3.org/2000/svg">
<path d="M20.8841 7.57002C20.7721 7.22549 20.4744 6.9744 20.1159 6.92238L14.0372 6.03921L11.3186 0.530466C11.1583 0.205665 10.8275 0 10.4653 0C10.1031 0 9.77229 0.205665 9.61205 0.530466L6.89368 6.03914L0.814758 6.92232C0.456335 6.9744 0.158495 7.22549 0.0465907 7.56996C-0.0653134 7.91449 0.0280035 8.29264 0.2874 8.54544L4.68611 12.8327L3.64731 18.8876C3.5861 19.2446 3.73283 19.6054 4.02585 19.8183C4.19161 19.9387 4.38795 20 4.58524 20C4.73667 20 4.88873 19.9639 5.02797 19.8907L10.4653 17.0323L15.9025 19.8907C16.0426 19.9643 16.196 19.9994 16.3479 20C16.8729 19.9992 17.2982 19.5735 17.2982 19.0484C17.2982 18.9754 17.2899 18.9041 17.2743 18.8358L16.2445 12.8327L20.6432 8.54544C20.9027 8.29264 20.996 7.91449 20.8841 7.57002Z" fill="#898989"/>
</svg>
