<svg width="30" height="30" viewBox="0 0 30 30" fill="none" xmlns="http://www.w3.org/2000/svg">
  <path d="M14.97 21.5807C6.43822 21.5807 6.43822 8.33463 14.97 8.33463C23.4021 8.33463 23.7589 21.5807 14.97 21.5807ZM15 10.4775C14.1141 10.4777 13.2481 10.7406 12.5115 11.233C11.775 11.7253 11.201 12.425 10.8621 13.2436C10.5232 14.0621 10.4347 14.9628 10.6076 15.8317C10.7806 16.7006 11.2073 17.4987 11.8339 18.1251C12.4604 18.7515 13.2586 19.178 14.1275 19.3508C14.9965 19.5235 15.8971 19.4348 16.7156 19.0957C17.5341 18.7566 18.2337 18.1824 18.7258 17.4458C19.218 16.7091 19.4807 15.8431 19.4807 14.9571C19.4793 13.7693 19.0067 12.6305 18.1667 11.7907C17.3267 10.9509 16.1878 10.4786 15 10.4775Z" fill="white"/>
  <path d="M16.0714 30H13.9286C13.3602 30 12.8152 29.7742 12.4133 29.3724C12.0115 28.9705 11.7857 28.4255 11.7857 27.8571V26.2982C10.9146 26.0509 10.0754 25.7029 9.285 25.2611L8.18143 26.3636C7.98243 26.5626 7.74617 26.7206 7.48613 26.8283C7.22609 26.9361 6.94737 26.9915 6.66589 26.9915C6.38442 26.9915 6.1057 26.9361 5.84566 26.8283C5.58562 26.7206 5.34935 26.5626 5.15036 26.3636L3.63643 24.8486C3.24006 24.4437 3.01808 23.8996 3.01808 23.333C3.01808 22.7664 3.24006 22.2224 3.63643 21.8175L4.725 20.73C4.27648 19.9356 3.92298 19.0913 3.67179 18.2143H2.14286C1.57454 18.2143 1.02949 17.9885 0.627628 17.5867C0.225765 17.1848 0 16.6397 0 16.0714V13.9286C0 13.3602 0.225765 12.8152 0.627628 12.4133C1.02949 12.0115 1.57454 11.7857 2.14286 11.7857H3.64929C3.89697 10.8995 4.24871 10.0457 4.69714 9.24214L3.63643 8.18143C3.24038 7.7766 3.01861 7.23277 3.01861 6.66643C3.01861 6.10009 3.24038 5.55626 3.63643 5.15143L5.15143 3.63643C5.35042 3.43735 5.58669 3.27943 5.84673 3.17169C6.10677 3.06395 6.38549 3.00849 6.66696 3.00849C6.94844 3.00849 7.22716 3.06395 7.4872 3.17169C7.74724 3.27943 7.98351 3.43735 8.1825 3.63643L9.22929 4.68321C10.036 4.22741 10.8942 3.86952 11.7857 3.61714V2.14286C11.7857 1.57454 12.0115 1.02949 12.4133 0.627628C12.8152 0.225765 13.3602 0 13.9286 0H16.0714C16.6397 0 17.1848 0.225765 17.5867 0.627628C17.9885 1.02949 18.2143 1.57454 18.2143 2.14286V3.61714C19.1062 3.86944 19.9648 4.22733 20.7718 4.68321L21.8196 3.63643C22.2277 3.24661 22.7703 3.02908 23.3346 3.02908C23.899 3.02908 24.4416 3.24661 24.8496 3.63643L26.3646 5.15143C26.761 5.55631 26.983 6.10036 26.983 6.66696C26.983 7.23357 26.761 7.77762 26.3646 8.1825L25.305 9.24321C25.7526 10.0465 26.1036 10.8999 26.3507 11.7857H27.8571C28.4255 11.7857 28.9705 12.0115 29.3724 12.4133C29.7742 12.8152 30 13.3602 30 13.9286V16.0714C30 16.6397 29.7742 17.1848 29.3724 17.5867C28.9705 17.9885 28.4255 18.2143 27.8571 18.2143H26.3282C26.077 19.0913 25.7235 19.9356 25.275 20.73L26.3646 21.8196C26.7607 22.2245 26.9825 22.7683 26.9825 23.3346C26.9825 23.901 26.7607 24.4448 26.3646 24.8496L24.8496 26.3646C24.4415 26.7548 23.8987 26.9725 23.3341 26.9725C22.7695 26.9725 22.2267 26.7548 21.8186 26.3646L20.7161 25.2632C19.9252 25.7042 19.0856 26.0516 18.2143 26.2982V27.8571C18.2143 28.4255 17.9885 28.9705 17.5867 29.3724C17.1848 29.7742 16.6397 30 16.0714 30ZM9.71036 23.0143C10.731 23.6898 11.8721 24.1627 13.0714 24.4071C13.3134 24.4565 13.5309 24.588 13.6871 24.7794C13.8433 24.9707 13.9286 25.2101 13.9286 25.4571V27.8571H16.0714V25.4571C16.0714 25.2101 16.1567 24.9707 16.3129 24.7794C16.4691 24.588 16.6866 24.4565 16.9286 24.4071C18.1279 24.1627 19.269 23.6898 20.2896 23.0143C20.4956 22.8786 20.7421 22.8182 20.9874 22.8432C21.2328 22.8682 21.462 22.9771 21.6364 23.1514L23.3336 24.8475L24.8486 23.3325L23.1621 21.6429C22.9869 21.4677 22.8778 21.2373 22.8534 20.9907C22.829 20.7442 22.8908 20.4968 23.0282 20.2907C23.7112 19.2714 24.1911 18.1298 24.4414 16.9286C24.4908 16.6867 24.6221 16.4694 24.8132 16.3132C25.0044 16.157 25.2435 16.0716 25.4904 16.0714H27.8571V13.9286H25.5054C25.2582 13.9289 25.0185 13.8437 24.8269 13.6875C24.6354 13.5313 24.5037 13.3136 24.4543 13.0714C24.2146 11.859 23.7416 10.7047 23.0614 9.67286C22.9258 9.46688 22.8654 9.22042 22.8904 8.97506C22.9153 8.7297 23.0242 8.50048 23.1986 8.32607L24.8529 6.67179L23.3336 5.15143L21.6889 6.795C21.5138 6.9702 21.2833 7.0793 21.0368 7.10372C20.7903 7.12813 20.5429 7.06637 20.3368 6.92893C19.304 6.2382 18.1463 5.75595 16.9286 5.50929C16.6866 5.45989 16.4691 5.32839 16.3129 5.13705C16.1567 4.94571 16.0714 4.70628 16.0714 4.45929V2.14286H13.9286V4.45929C13.9286 4.70628 13.8433 4.94571 13.6871 5.13705C13.5309 5.32839 13.3134 5.45989 13.0714 5.50929C11.8536 5.75628 10.6959 6.23889 9.66321 6.93C9.4571 7.06744 9.20973 7.12921 8.9632 7.10479C8.71667 7.08037 8.48622 6.97127 8.31107 6.79607L6.66643 5.15143L5.15143 6.66643L6.80571 8.32071C6.98009 8.49512 7.08895 8.72435 7.11393 8.9697C7.13892 9.21506 7.07849 9.46152 6.94286 9.6675C6.26272 10.6994 5.78966 11.8537 5.55 13.0661C5.50056 13.3083 5.36891 13.5259 5.17735 13.6821C4.98579 13.8383 4.74611 13.9235 4.49893 13.9232H2.14286V16.0661H4.50964C4.75646 16.0663 4.99563 16.1517 5.18675 16.3078C5.37787 16.464 5.50921 16.6814 5.55857 16.9232C5.8077 18.1269 6.28721 19.2712 6.97071 20.2929C7.10773 20.4987 7.16935 20.7455 7.14514 20.9916C7.12093 21.2376 7.01236 21.4677 6.83786 21.6429L5.15143 23.3336L6.66643 24.8486L8.36357 23.1525C8.54054 22.9826 8.76918 22.8768 9.01319 22.8517C9.2572 22.8267 9.50258 22.8839 9.71036 23.0143Z" fill="white"/>
</svg>
