<svg width="62" height="82" viewBox="0 0 62 82" fill="none" xmlns="http://www.w3.org/2000/svg">
<path d="M60.8888 79.7535H9.22753C5.3626 79.7535 2.20623 76.5558 2.20623 72.6203C2.20623 68.6848 5.34649 65.4871 9.22753 65.4871H43.2068C46.7979 65.4871 49.7288 62.5191 49.7288 58.8459C49.7288 55.1891 46.7979 52.2047 43.2068 52.2047H24.8644C23.4312 52.2047 22.2717 51.024 22.2717 49.581C22.2717 48.138 23.4312 46.9573 24.8644 46.9573C24.8966 46.9573 24.9449 46.9573 24.9771 46.9409C25.0255 46.9409 25.0738 46.9573 25.1221 46.9573C25.2992 46.9573 25.4764 46.9081 25.6374 46.8261L34.6073 41.9723C34.6395 41.9559 34.6717 41.9231 34.7039 41.9067C34.7361 41.8903 34.7522 41.8739 34.7844 41.8575C34.8488 41.8083 34.9132 41.7427 34.9616 41.6771L60.8566 8.0119C61.4686 7.2248 61.7262 6.24091 61.6135 5.24063C61.5008 4.24035 61.0016 3.35485 60.2286 2.74812L57.7808 0.796752C56.1865 -0.482298 53.8514 -0.187133 52.5953 1.43628L26.7164 35.1015C26.6681 35.1671 26.6358 35.2327 26.5875 35.2983C26.5875 35.3147 26.5875 35.3147 26.5714 35.3311C26.5392 35.3967 26.5231 35.4459 26.507 35.5115L24.2364 44.7436C21.8852 45.0551 20.0655 47.1049 20.0655 49.581C20.0655 52.2703 22.2234 54.4676 24.8644 54.4676H43.2068C45.5901 54.4676 47.5226 56.4354 47.5226 58.8459C47.5226 61.2564 45.5901 63.2242 43.2068 63.2242H9.22753C4.1387 63.2242 0 67.4385 0 72.6203C0 77.8021 4.1387 82 9.22753 82H60.8888C61.5008 82 62 81.4917 62 80.8685C62 80.2454 61.5008 79.7535 60.8888 79.7535ZM54.3507 2.83011C54.8499 2.17419 55.7839 2.0594 56.4119 2.56774L58.8597 4.51911C59.1657 4.76508 59.359 5.12584 59.4073 5.5194C59.4556 5.91295 59.3429 6.3065 59.1013 6.61807L56.9273 9.45493L52.1605 5.66698L54.3507 2.83011ZM50.8078 7.43797L55.5745 11.2259L33.8987 39.3814L29.1481 35.5935L50.8078 7.43797ZM28.2462 37.7416L32.0629 40.7752L26.7969 43.6285L28.2462 37.7416Z" fill="#AB4164"/>
</svg>
