<svg width="23" height="27" viewBox="0 0 23 27" fill="none" xmlns="http://www.w3.org/2000/svg">
<path d="M22.9313 25.0819C22.1259 19.6548 20.025 14.3067 15.0685 12.5917C16.9947 11.3901 18.2733 9.25198 18.2733 6.80924C18.2733 3.05203 15.2318 0 11.475 0C7.7182 0 4.67671 3.04639 4.67671 6.80924C4.67671 9.24634 5.96089 11.3901 7.88154 12.5917C2.92504 14.3067 0.818522 19.6548 0.0187228 25.0819C-0.133352 26.0917 0.660815 27 1.68028 27H21.2585C22.2892 27 23.0834 26.0917 22.9313 25.0819ZM7.23945 6.80924C7.23945 4.46803 9.14319 2.56122 11.4806 2.56122C12.0382 2.56122 12.4945 3.01818 12.4945 3.57668C12.4945 4.13519 12.0382 4.59214 11.4806 4.59214C10.2584 4.59214 9.26711 5.58504 9.26711 6.80924C9.26711 7.36774 8.81088 7.8247 8.25328 7.8247C7.69004 7.8247 7.23945 7.37338 7.23945 6.80924Z" fill="#FFFFFF"/>
</svg>
