<svg
  width="80"
  height="80"
  viewBox="0 0 80 80"
  fill="none"
  xmlns="http://www.w3.org/2000/svg"
>
  <path
    d="M60.3033 58.3315C59.5856 57.607 58.4228 57.607 57.7051 58.3315C56.9874 59.0555 56.9874 60.23 57.7051 60.9545L64.2392 67.5514C64.5983 67.9139 65.0682 68.0946 65.5386 68.0946C66.009 68.0946 66.4789 67.9134 66.838 67.5514C67.5557 66.8274 67.5557 65.6529 66.838 64.9284L60.3033 58.3315Z"
    fill="white"
  />
  <path
    d="M68.7842 52.4819H62.4123C61.3974 52.4819 60.5748 53.3124 60.5748 54.3369C60.5748 55.3614 61.3974 56.1919 62.4123 56.1919H68.7842C69.799 56.1919 70.6217 55.3614 70.6217 54.3369C70.6217 53.3124 69.7985 52.4819 68.7842 52.4819Z"
    fill="white"
  />
  <path
    d="M53.7477 61.229C52.7328 61.229 51.9102 62.0595 51.9102 63.084V69.5166C51.9102 70.5411 52.7328 71.3716 53.7477 71.3716C54.7625 71.3716 55.5852 70.5411 55.5852 69.5166V63.084C55.5852 62.0595 54.762 61.229 53.7477 61.229Z"
    fill="white"
  />
  <path
    d="M19.6127 22.5003C19.9718 22.8623 20.4416 23.0436 20.912 23.0436C21.3824 23.0436 21.8523 22.8623 22.2114 22.5003C22.9291 21.7758 22.9291 20.6013 22.2114 19.8768L15.6773 13.2799C14.9596 12.5559 13.7962 12.5559 13.0785 13.2799C12.3608 14.0044 12.3608 15.1789 13.0785 15.9034L19.6127 22.5003Z"
    fill="white"
  />
  <path
    d="M26.1689 19.6028C27.1837 19.6028 28.0064 18.7723 28.0064 17.7478V11.3157C28.0064 10.2912 27.1837 9.46072 26.1689 9.46072C25.1541 9.46072 24.3314 10.2912 24.3314 11.3157V17.7478C24.3314 18.7723 25.1541 19.6028 26.1689 19.6028Z"
    fill="white"
  />
  <path
    d="M11.1323 28.3504H17.5037C18.5186 28.3504 19.3412 27.5199 19.3412 26.4954C19.3412 25.471 18.5191 24.6404 17.5037 24.6404H11.1323C10.1175 24.6404 9.29485 25.471 9.29485 26.4954C9.29485 27.5199 10.1175 28.3504 11.1323 28.3504Z"
    fill="white"
  />
  <path
    d="M77.5548 23.6176L70.4442 16.4392C69.9633 15.9538 69.2546 15.7767 68.6067 15.9771C67.9568 16.1779 67.4701 16.7249 67.3409 17.3991C67.1635 18.3255 66.6768 19.1322 65.9334 19.7316C64.5584 20.8404 62.4857 20.8398 61.1113 19.729C60.2251 19.0124 59.7032 17.9964 59.6418 16.8675C59.5814 15.7534 59.9941 14.6627 60.7742 13.8751C61.326 13.3186 62.0195 12.946 62.7813 12.7971C63.4486 12.6672 63.9909 12.1754 64.1904 11.5192C64.3894 10.8631 64.2135 10.1497 63.7326 9.66425L56.622 2.48593C54.5661 0.410981 51.2213 0.410981 49.1654 2.48593L25.804 26.0699L16.2816 35.6825C15.8028 36.1658 15.6258 36.876 15.8222 37.5306C16.018 38.1846 16.5546 38.6775 17.2182 38.8127C18.1306 38.9982 18.9228 39.4916 19.5087 40.2389C20.5976 41.6285 20.5902 43.7178 19.4909 45.099C18.7806 45.991 17.7747 46.5151 16.658 46.5761C15.556 46.6408 14.4761 46.2194 13.6965 45.4329C13.1547 44.8854 12.7882 44.1959 12.637 43.438C12.5037 42.7675 12.0154 42.2259 11.367 42.0282C10.7192 41.8305 10.0152 42.0091 9.53635 42.4919L2.44203 49.6543C0.386654 51.7298 0.386654 55.1064 2.44203 57.1819L23.3748 78.3136C24.4028 79.3513 25.7526 79.8707 27.1034 79.8707C28.4542 79.8707 29.804 79.3518 30.8319 78.3136L37.9252 71.1527C38.404 70.6694 38.5809 69.9597 38.3851 69.3051C38.1898 68.6511 37.6532 68.1582 36.9896 68.0231C36.2378 67.8699 35.5548 67.5 35.013 66.953C34.2329 66.1654 33.8202 65.0752 33.8801 63.9617C33.941 62.8338 34.4607 61.8184 35.3443 61.1018C36.7135 59.993 38.7825 59.9862 40.1591 61.0854C40.8988 61.6774 41.387 62.4766 41.5708 63.3967C41.7047 64.0672 42.1929 64.6083 42.8408 64.806C43.4881 65.0031 44.1921 64.8251 44.6709 64.3417L54.1934 54.7286L77.5548 31.1446C78.5507 30.1392 79.0994 28.8026 79.0994 27.3806C79.0994 25.9596 78.5507 24.623 77.5548 23.6176ZM43.9622 59.8113C43.5401 59.2002 43.0287 58.6484 42.4402 58.1783V58.1778C39.7102 55.9958 35.7575 56.0075 33.0432 58.2107C31.3595 59.5754 30.3269 61.5989 30.2103 63.7608C30.0933 65.9253 30.8965 68.0448 32.4137 69.577C32.7303 69.8971 33.0716 70.1849 33.4338 70.4409L28.2332 75.6911C27.6294 76.2996 26.5773 76.2996 25.9731 75.6911L5.04078 54.5595C4.4176 53.9304 4.4176 52.907 5.04078 52.2778L10.242 47.0277C10.4945 47.3928 10.7806 47.7379 11.0972 48.0569C12.6139 49.5881 14.7181 50.3953 16.8559 50.2819C18.9974 50.1642 21.0013 49.1227 22.3547 47.4241C24.5361 44.684 24.5508 40.6942 22.3899 37.9376C21.9237 37.3424 21.3767 36.8252 20.7703 36.398L27.1034 30.0046L35.569 38.5514C36.0709 39.058 36.8164 39.2276 37.4873 38.986C38.1557 38.7443 38.6271 38.1348 38.6969 37.4209C38.7857 36.5087 39.1726 35.683 39.8157 35.0338C40.598 34.2446 41.6826 33.827 42.7846 33.8906C43.9044 33.9542 44.9114 34.4831 45.6196 35.3798C46.7116 36.7621 46.7305 38.7809 45.6647 40.1801C44.9933 41.062 44.0283 41.6068 42.9484 41.7144C42.2412 41.7849 41.638 42.2603 41.3986 42.9355C41.1597 43.6107 41.3272 44.3649 41.8296 44.8722L50.2947 53.4184L43.9622 59.8113ZM74.9561 28.5222L52.894 50.7949L46.4963 44.3363C47.2865 43.8503 47.991 43.2122 48.578 42.4421C50.6612 39.7084 50.6249 35.7652 48.4929 33.0664C47.1431 31.3577 45.1371 30.3078 42.9909 30.1864C40.8342 30.0639 38.7379 30.8759 37.217 32.4108C36.7886 32.8438 36.4153 33.3261 36.1035 33.8439L29.7021 27.3816L51.7642 5.10943C52.3879 4.48032 53.4006 4.48032 54.0243 5.10943L59.2297 10.3644C58.8554 10.6257 58.5031 10.9219 58.1765 11.2516C56.6577 12.7849 55.855 14.906 55.9731 17.0715C56.0912 19.236 57.1265 21.2601 58.8139 22.6249C61.5407 24.8291 65.4992 24.8313 68.2277 22.6307C68.8167 22.1558 69.3281 21.5999 69.7486 20.984L74.9566 26.2416C75.2585 26.5463 75.4249 26.9513 75.4249 27.3816C75.4244 27.8125 75.2585 28.2174 74.9561 28.5222Z"
    fill="white"
  />
</svg>