<svg xmlns="http://www.w3.org/2000/svg" viewBox="0 0 551 147.54"><defs><style>.cls-1{fill:#010101;}.cls-2{fill:#049a83;}.cls-3{fill:#1b4687;}</style></defs><g id="Layer_2" data-name="Layer 2"><g id="Layer_1-2" data-name="Layer 1"><polygon class="cls-1" points="204.76 91.08 194.01 91.08 194.01 103.43 188.26 103.43 188.26 73.93 194.01 73.93 194.01 85.94 204.76 85.94 204.76 73.93 210.51 73.93 210.51 103.43 204.76 103.43 204.76 91.08"/><path class="cls-1" d="M220.09,92.9a12,12,0,0,0,.25,2.56,7.12,7.12,0,0,0,.75,2.07,3.58,3.58,0,0,0,3.28,1.86,3.56,3.56,0,0,0,3.18-1.56,8.93,8.93,0,0,0,1.06-4.93,9.9,9.9,0,0,0-1-4.7,3.42,3.42,0,0,0-3.28-1.79,3.71,3.71,0,0,0-3.15,1.51c-.76,1-1.13,2.67-1.13,5m-5.63,0c0-3.58.87-6.32,2.6-8.24a9.36,9.36,0,0,1,7.31-2.9,10.94,10.94,0,0,1,4.36.81,8.15,8.15,0,0,1,3.07,2.25,9.73,9.73,0,0,1,1.82,3.52,16,16,0,0,1,.61,4.56q0,5.35-2.57,8.23a9.29,9.29,0,0,1-7.29,2.9,10.79,10.79,0,0,1-4.37-.81,8.35,8.35,0,0,1-3.09-2.25,9.45,9.45,0,0,1-1.84-3.52,16,16,0,0,1-.61-4.55"/><path class="cls-1" d="M246.7,97.62a1.55,1.55,0,0,0-.71-1.35,8,8,0,0,0-1.76-.92q-1.06-.43-2.31-.87a9.34,9.34,0,0,1-2.32-1.22,6.92,6.92,0,0,1-1.76-2,5.93,5.93,0,0,1-.71-3.1A6,6,0,0,1,239,83.42a7.75,7.75,0,0,1,5.33-1.65,17,17,0,0,1,4.33.5,11.93,11.93,0,0,1,3,1.15l-1.21,4a23.37,23.37,0,0,0-2.44-.8,10.41,10.41,0,0,0-3-.43c-1.63,0-2.44.63-2.44,1.9a1.41,1.41,0,0,0,.72,1.22,9.3,9.3,0,0,0,1.76.87l2.31.86a9.34,9.34,0,0,1,2.3,1.21,6.13,6.13,0,0,1,1.77,1.91,5.87,5.87,0,0,1,.72,3,6.45,6.45,0,0,1-2,5Q248.1,104,244,104a14.44,14.44,0,0,1-4.17-.57,13.09,13.09,0,0,1-3.17-1.32L238.18,98a14.86,14.86,0,0,0,2.56,1.07,10.14,10.14,0,0,0,3.27.53,3.53,3.53,0,0,0,2-.47,1.68,1.68,0,0,0,.73-1.55"/><path class="cls-1" d="M265.09,86.4a3.68,3.68,0,0,0-2.5.81,5.24,5.24,0,0,0-1.41,2.4v8.77a5.33,5.33,0,0,0,1.29.74,5.12,5.12,0,0,0,1.82.26,4.06,4.06,0,0,0,3.53-1.65c.78-1.12,1.18-3,1.18-5.51a8.3,8.3,0,0,0-.93-4.3,3.23,3.23,0,0,0-3-1.52m-9.36-4h4l.62,2.53h.18a6.9,6.9,0,0,1,2.58-2.37,8,8,0,0,1,3.63-.75,7.06,7.06,0,0,1,5.92,2.51q2,2.5,2,8.06a17.41,17.41,0,0,1-.64,4.87,10.39,10.39,0,0,1-1.86,3.7,8.18,8.18,0,0,1-3,2.31A10,10,0,0,1,265,104a9.59,9.59,0,0,1-2.14-.2,6.9,6.9,0,0,1-1.69-.61v8.64h-5.45Z"/><path class="cls-1" d="M279,82.36h5.74v21.08H279Zm-.84-5.94a2.69,2.69,0,0,1,.95-2.09,3.77,3.77,0,0,1,2.63-.86,4.15,4.15,0,0,1,2.71.86,2.59,2.59,0,0,1,1,2.09,2.47,2.47,0,0,1-1,2,4.25,4.25,0,0,1-2.71.82,3.85,3.85,0,0,1-2.63-.82,2.56,2.56,0,0,1-.95-2"/><path class="cls-1" d="M287.51,82.36h2.9v-4l5.46-1.57v5.53H301V87h-5.12v8.1a8,8,0,0,0,.44,3.14,1.66,1.66,0,0,0,1.66,1,5.17,5.17,0,0,0,1.45-.18,8.93,8.93,0,0,0,1.36-.5l1,4.22a13.73,13.73,0,0,1-2.64.93A13.23,13.23,0,0,1,296,104a5.43,5.43,0,0,1-4.25-1.51q-1.36-1.48-1.37-4.91V87h-2.9Z"/><path class="cls-1" d="M311.15,99.25a4.23,4.23,0,0,0,2.61-.73,5.2,5.2,0,0,0,1.42-1.58V94.2a16.19,16.19,0,0,0-2.5,0,9.13,9.13,0,0,0-2.12.38,3.56,3.56,0,0,0-1.47.84,1.87,1.87,0,0,0-.54,1.39,2.42,2.42,0,0,0,.68,1.84,2.75,2.75,0,0,0,1.92.64m-6.93-15.67a18,18,0,0,1,4-1.2,26,26,0,0,1,4.83-.45,10.69,10.69,0,0,1,3.65.54,5.21,5.21,0,0,1,3.55,3.81,11.77,11.77,0,0,1,.36,3c0,1.24-.05,2.49-.13,3.73s-.14,2.48-.15,3.69,0,2.38.11,3.52a12.94,12.94,0,0,0,.63,3.23h-4.45l-.89-2.92h-.2a7.71,7.71,0,0,1-2.34,2.27,7.12,7.12,0,0,1-3.83.94,7.63,7.63,0,0,1-2.65-.44,5.74,5.74,0,0,1-2-1.27,5.66,5.66,0,0,1-1.3-1.94,6.63,6.63,0,0,1-.46-2.5,5.92,5.92,0,0,1,.86-3.27,6.18,6.18,0,0,1,2.48-2.15,12.08,12.08,0,0,1,3.87-1.14,26.77,26.77,0,0,1,5-.18,5.55,5.55,0,0,0-.34-3.4c-.42-.69-1.36-1-2.81-1a19.42,19.42,0,0,0-3.46.33,13.26,13.26,0,0,0-3,.89Z"/><path class="cls-1" d="M330.8,96.35a4.51,4.51,0,0,0,.38,2.15,1.28,1.28,0,0,0,1.21.68,6.39,6.39,0,0,0,1-.09,5.87,5.87,0,0,0,1.19-.38l.6,4.3a10.42,10.42,0,0,1-2.06.68,12.34,12.34,0,0,1-2.85.33,5.37,5.37,0,0,1-3.66-1.11,4.72,4.72,0,0,1-1.26-3.69V73.93h5.46Z"/><path class="cls-1" d="M364.22,73.93h5.46V93a14.19,14.19,0,0,1-.76,4.93,9.3,9.3,0,0,1-2.1,3.42,8,8,0,0,1-3.28,2,13.31,13.31,0,0,1-4.23.64q-11.18,0-11.17-10.24V73.93h5.75V92.56a12.24,12.24,0,0,0,.31,2.93,4.69,4.69,0,0,0,1,1.94,3.67,3.67,0,0,0,1.67,1,8,8,0,0,0,2.36.32A4.6,4.6,0,0,0,363,97.32c.79-1,1.18-2.57,1.18-4.76Z"/><path class="cls-1" d="M387.31,103.43v-12a7.14,7.14,0,0,0-.74-3.71,2.73,2.73,0,0,0-2.49-1.14,3.9,3.9,0,0,0-2.62.91,5.06,5.06,0,0,0-1.54,2.26v13.65h-5.46V82.36h4.33l.62,2.78h.18a8.94,8.94,0,0,1,2.55-2.36,7.57,7.57,0,0,1,4.13-1,8.42,8.42,0,0,1,2.76.42,4.58,4.58,0,0,1,2.06,1.4,6.27,6.27,0,0,1,1.26,2.63,17.1,17.1,0,0,1,.42,4.11v13.1Z"/><path class="cls-1" d="M397.89,82.36h5.74v21.08h-5.74Zm-.84-5.94a2.72,2.72,0,0,1,.95-2.09,3.8,3.8,0,0,1,2.63-.86,4.11,4.11,0,0,1,2.71.86,2.61,2.61,0,0,1,1.05,2.09,2.49,2.49,0,0,1-1.05,2,4.21,4.21,0,0,1-2.71.82,3.89,3.89,0,0,1-2.63-.82,2.59,2.59,0,0,1-.95-2"/><polygon class="cls-1" points="415.9 93.4 416.62 96.64 416.82 96.64 417.42 93.32 420.98 82.36 426.86 82.36 418.08 103.64 414.77 103.64 405.66 82.36 412 82.36 415.9 93.4"/><path class="cls-1" d="M437.66,86.15a3.82,3.82,0,0,0-3.18,1.29,6.34,6.34,0,0,0-1.23,3.44h7.8a5.34,5.34,0,0,0-.69-3.5,3.08,3.08,0,0,0-2.7-1.23m7.8,15.47a10.45,10.45,0,0,1-3.43,1.71,14.9,14.9,0,0,1-4.59.69c-3.39,0-5.86-1-7.43-3s-2.35-4.7-2.35-8.16q0-5.55,2.65-8.33c1.76-1.87,4.24-2.79,7.43-2.79a11.66,11.66,0,0,1,3.11.42,7.3,7.3,0,0,1,2.68,1.39,6.88,6.88,0,0,1,1.89,2.61,10.44,10.44,0,0,1,.72,4.09,16.15,16.15,0,0,1-.12,1.9c-.06.67-.17,1.38-.3,2.1H433.11a6.17,6.17,0,0,0,1.37,4,5.13,5.13,0,0,0,4,1.36,8.5,8.5,0,0,0,3.08-.53A8.18,8.18,0,0,0,443.66,98Z"/><path class="cls-1" d="M461.58,87.5a7,7,0,0,0-2.35-.46,3.85,3.85,0,0,0-2.46.78,3.81,3.81,0,0,0-1.32,2v13.61H450V82.36h4.25l.62,2.78H455A5.8,5.8,0,0,1,457,82.73a5,5,0,0,1,2.85-.84,8,8,0,0,1,2.48.47Z"/><path class="cls-1" d="M473.42,97.62a1.55,1.55,0,0,0-.71-1.35,8,8,0,0,0-1.76-.92q-1.06-.43-2.31-.87a9.34,9.34,0,0,1-2.32-1.22,6.78,6.78,0,0,1-1.76-2,5.93,5.93,0,0,1-.71-3.1,6,6,0,0,1,1.85-4.75A7.75,7.75,0,0,1,471,81.77a17,17,0,0,1,4.33.5,11.93,11.93,0,0,1,3,1.15l-1.21,4a23.37,23.37,0,0,0-2.44-.8,10.41,10.41,0,0,0-3-.43c-1.63,0-2.44.63-2.44,1.9a1.42,1.42,0,0,0,.71,1.22,9.73,9.73,0,0,0,1.77.87l2.31.86a9.34,9.34,0,0,1,2.3,1.21,6.13,6.13,0,0,1,1.77,1.91,5.87,5.87,0,0,1,.71,3,6.45,6.45,0,0,1-2,5q-2,1.83-6.11,1.83a14.44,14.44,0,0,1-4.17-.57,13.09,13.09,0,0,1-3.17-1.32L464.9,98a14.86,14.86,0,0,0,2.56,1.07,10.14,10.14,0,0,0,3.27.53,3.53,3.53,0,0,0,2-.47,1.68,1.68,0,0,0,.73-1.55"/><path class="cls-1" d="M483,82.36h5.74v21.08H483Zm-.83-5.94a2.69,2.69,0,0,1,.95-2.09,3.77,3.77,0,0,1,2.63-.86,4.15,4.15,0,0,1,2.71.86,2.62,2.62,0,0,1,1,2.09,2.5,2.5,0,0,1-1,2,4.25,4.25,0,0,1-2.71.82,3.85,3.85,0,0,1-2.63-.82,2.56,2.56,0,0,1-.95-2"/><path class="cls-1" d="M491.56,82.36h2.9v-4l5.46-1.57v5.53H505V87h-5.12v8.1a8,8,0,0,0,.44,3.14,1.65,1.65,0,0,0,1.66,1,5.1,5.1,0,0,0,1.44-.18,9,9,0,0,0,1.37-.5l1,4.22a13.73,13.73,0,0,1-2.64.93,13.23,13.23,0,0,1-3.07.38,5.46,5.46,0,0,1-4.26-1.51c-.9-1-1.36-2.63-1.36-4.91V87h-2.9Z"/><path class="cls-1" d="M515.2,99.25a4.23,4.23,0,0,0,2.61-.73,5.2,5.2,0,0,0,1.42-1.58V94.2a16.19,16.19,0,0,0-2.5,0,9.13,9.13,0,0,0-2.12.38,3.56,3.56,0,0,0-1.47.84,1.87,1.87,0,0,0-.54,1.39,2.42,2.42,0,0,0,.68,1.84,2.73,2.73,0,0,0,1.92.64m-6.93-15.67a18,18,0,0,1,4-1.2,26,26,0,0,1,4.83-.45,10.69,10.69,0,0,1,3.65.54,5.26,5.26,0,0,1,3.55,3.81,11.77,11.77,0,0,1,.36,3c0,1.24,0,2.49-.13,3.73s-.14,2.48-.15,3.69,0,2.38.11,3.52a12.94,12.94,0,0,0,.63,3.23h-4.45l-.89-2.92h-.2a7.71,7.71,0,0,1-2.34,2.27,7.12,7.12,0,0,1-3.83.94,7.55,7.55,0,0,1-2.65-.44,5.74,5.74,0,0,1-2-1.27,5.66,5.66,0,0,1-1.3-1.94,6.63,6.63,0,0,1-.46-2.5,5.92,5.92,0,0,1,.86-3.27,6.18,6.18,0,0,1,2.48-2.15,12.1,12.1,0,0,1,3.86-1.14,26.92,26.92,0,0,1,5-.18,5.55,5.55,0,0,0-.34-3.4c-.42-.69-1.36-1-2.81-1a19.42,19.42,0,0,0-3.46.33,13.26,13.26,0,0,0-3,.89Z"/><path class="cls-1" d="M540.81,87.5a7.1,7.1,0,0,0-2.35-.46,3.85,3.85,0,0,0-2.46.78,3.81,3.81,0,0,0-1.32,2v13.61h-5.46V82.36h4.24l.63,2.78h.17a5.72,5.72,0,0,1,1.94-2.41,4.94,4.94,0,0,1,2.85-.84,8,8,0,0,1,2.48.47Z"/><path class="cls-1" d="M544.5,82.36h5.74v21.08H544.5Zm-.84-5.94a2.7,2.7,0,0,1,1-2.09,3.77,3.77,0,0,1,2.63-.86,4.15,4.15,0,0,1,2.71.86,2.63,2.63,0,0,1,1,2.09,2.51,2.51,0,0,1-1,2,4.25,4.25,0,0,1-2.71.82,3.85,3.85,0,0,1-2.63-.82,2.57,2.57,0,0,1-1-2"/><path class="cls-1" d="M201.92,23.36q-1.3,0-2.52.06a10.49,10.49,0,0,0-2,.26v13a6.75,6.75,0,0,0,.8.12,10.76,10.76,0,0,0,1.18.11l1.15.06.84,0a24.32,24.32,0,0,0,3.6-.26,8.58,8.58,0,0,0,3.19-1,6.49,6.49,0,0,0,2.27-2.21,7.22,7.22,0,0,0,.87-3.78,5.74,5.74,0,0,0-.81-3.2,5.54,5.54,0,0,0-2.14-1.9,9.4,9.4,0,0,0-3.05-.93,21.83,21.83,0,0,0-3.43-.26m-13.66-7c1.86-.32,3.93-.59,6.21-.77s4.55-.29,6.82-.29a47.57,47.57,0,0,1,7,.53,18.72,18.72,0,0,1,6.36,2.12,12.91,12.91,0,0,1,4.63,4.43,13.73,13.73,0,0,1,1.8,7.51,14.66,14.66,0,0,1-1.55,7,13.3,13.3,0,0,1-4.13,4.69,17.68,17.68,0,0,1-5.86,2.65,26.81,26.81,0,0,1-6.76.84h-1.07l-1.57,0c-.57,0-1.09,0-1.59-.09s-.87-.08-1.11-.12V59.5h-9.19Z"/><path class="cls-1" d="M236.23,53a7.34,7.34,0,0,0,4.66-1.37,9.85,9.85,0,0,0,2.55-2.87V45a6.45,6.45,0,0,0-1-.24L241,44.54c-.51-.08-1-.14-1.55-.18s-1-.06-1.39-.06a8.26,8.26,0,0,0-5,1.22,3.64,3.64,0,0,0-1.61,3,4.25,4.25,0,0,0,1.27,3.37A5,5,0,0,0,236.23,53M224.88,29A33.19,33.19,0,0,1,231.73,27a43,43,0,0,1,8.41-.81,17.65,17.65,0,0,1,5.75.81,8.67,8.67,0,0,1,3.68,2.33,9,9,0,0,1,2,3.68,17.75,17.75,0,0,1,.59,4.77q0,3.18-.24,6.29t-.25,6.6a33,33,0,0,0,.31,4.61,23.84,23.84,0,0,0,1,4.3h-7.08l-1.42-4.86h-.75a14.88,14.88,0,0,1-4.09,3.74,11.87,11.87,0,0,1-6.4,1.56,13.16,13.16,0,0,1-4.31-.68,9.71,9.71,0,0,1-3.35-2,9,9,0,0,1-2.18-3,9.27,9.27,0,0,1-.77-3.79q0-5.55,3.69-8.38t11.2-2.83a22.57,22.57,0,0,1,3.48.27l2.42.41a15.55,15.55,0,0,0,.19-2.24,4.59,4.59,0,0,0-1.18-3.49c-.79-.76-2.26-1.12-4.41-1.12a23.39,23.39,0,0,0-5.8.71,26.72,26.72,0,0,0-5,1.78Z"/><path class="cls-1" d="M280.36,34.77a11.53,11.53,0,0,0-3.72-.63,7.39,7.39,0,0,0-4.5,1.31,6.06,6.06,0,0,0-2.33,3.31V59.5h-8.69V26.79H268l.93,4.55h.81A9.69,9.69,0,0,1,273,27.41,8.5,8.5,0,0,1,277.75,26a13.15,13.15,0,0,1,3.85.68Z"/><path class="cls-1" d="M310.89,57.51a16,16,0,0,1-5.05,2.17,24.26,24.26,0,0,1-6.12.75,17.85,17.85,0,0,1-7.11-1.25,11.72,11.72,0,0,1-4.7-3.55,14,14,0,0,1-2.64-5.45,27.6,27.6,0,0,1-.81-7c0-5.43,1.33-9.69,4-12.73s6.55-4.59,11.63-4.59a26.34,26.34,0,0,1,6.12.6A20.92,20.92,0,0,1,310.46,28l-2.11,7a18,18,0,0,0-3.19-1,18.42,18.42,0,0,0-3.7-.33,7.69,7.69,0,0,0-6,2.27c-1.38,1.51-2.08,4-2.08,7.31a13.07,13.07,0,0,0,.5,3.72,8.47,8.47,0,0,0,1.56,3A7.2,7.2,0,0,0,298.11,52a8.88,8.88,0,0,0,3.78.75,14.59,14.59,0,0,0,4.13-.47A13.57,13.57,0,0,0,308.91,51Z"/><polygon class="cls-1" points="363.4 23.99 349.62 23.99 349.62 59.5 340.44 59.5 340.44 23.99 326.67 23.99 326.67 15.89 363.4 15.89 363.4 23.99"/><path class="cls-1" d="M372.58,53a7.34,7.34,0,0,0,4.66-1.37,9.7,9.7,0,0,0,2.55-2.87V45a6.15,6.15,0,0,0-1-.24l-1.43-.26c-.51-.08-1-.14-1.54-.18s-1-.06-1.4-.06a8.28,8.28,0,0,0-5,1.22,3.64,3.64,0,0,0-1.61,3,4.26,4.26,0,0,0,1.28,3.37A5,5,0,0,0,372.58,53M361.23,29A33.19,33.19,0,0,1,368.08,27a43,43,0,0,1,8.41-.81,17.65,17.65,0,0,1,5.75.81,8.71,8.71,0,0,1,3.69,2.33,9.13,9.13,0,0,1,2,3.68,18.18,18.18,0,0,1,.58,4.77q0,3.18-.24,6.29t-.25,6.6a33,33,0,0,0,.31,4.61,23.84,23.84,0,0,0,1,4.3h-7.07l-1.43-4.86H380a14.74,14.74,0,0,1-4.09,3.74A11.86,11.86,0,0,1,369.55,60a13.18,13.18,0,0,1-4.32-.68,9.71,9.71,0,0,1-3.35-2,9,9,0,0,1-2.17-3,9.11,9.11,0,0,1-.77-3.79c0-3.7,1.22-6.49,3.69-8.38s6.19-2.83,11.2-2.83a22.53,22.53,0,0,1,3.47.27l2.43.41a16.92,16.92,0,0,0,.18-2.24,4.59,4.59,0,0,0-1.18-3.49c-.79-.76-2.26-1.12-4.41-1.12a23.44,23.44,0,0,0-5.8.71,26.36,26.36,0,0,0-5,1.78Z"/><path class="cls-1" d="M406.16,26.79V44.92q0,4,1.12,5.92c.75,1.24,2.18,1.87,4.29,1.87a7.29,7.29,0,0,0,4.59-1.44,8.4,8.4,0,0,0,2.73-3.61V26.79h8.69V49.53a50.89,50.89,0,0,0,.27,5.23,39.72,39.72,0,0,0,.78,4.74h-6.39l-1.68-5.11h-.68a12.86,12.86,0,0,1-4.59,4.33,13.43,13.43,0,0,1-6.83,1.71,14.8,14.8,0,0,1-4.72-.69,7.65,7.65,0,0,1-3.44-2.27,10.38,10.38,0,0,1-2.12-4.2,25.3,25.3,0,0,1-.7-6.48v-20Z"/><path class="cls-1" d="M446.19,48c0,3.16,1,4.73,3,4.73a8.65,8.65,0,0,0,1.65-.15,16.69,16.69,0,0,0,1.83-.53l1.05,6.79a19,19,0,0,1-3.5,1.08,20.13,20.13,0,0,1-4.69.54,9.1,9.1,0,0,1-6-1.75c-1.39-1.16-2.07-3.07-2.07-5.73V15.89h8.68Z"/><path class="cls-1" d="M459.28,26.79H468V59.5h-8.69Zm3.42-12.71h8.81v1.81l-7.82,8H459Z"/><path class="cls-2" d="M27.76,42.83c1.11-.58,6.72-2.58,9.62-3.7a36.09,36.09,0,0,1,9.07-2.07,35.32,35.32,0,0,1,7.68-.38c2.9.29,4.95-.3,8.62-.12,5.82.28,17.13,2.94,21.25,4a26.69,26.69,0,0,1,12.06,7.13,8.85,8.85,0,0,0,2.07,2.88c1.13-.06,1.7,1.43,2.22,2.12a40.62,40.62,0,0,1,9.53,18.21c1.2,6.17,3,12.2,2.62,19.32-.61,11-5.56,22-11.12,30.84-6.89,9.11-15.42,17.85-26,21.61-6.08,2.94-13.35,3.92-20.47,4.67-12.9,1.13-27.9-3.85-34.09-7.61S12,134.3,8.44,128.09c-3.31-5.78-3.08-9.6-3.51-13.61C0,107.78.38,97.54,0,89.18,1.42,77.51,5.45,64,12.66,54.9c4.86-4.14,9.54-9.13,15.1-12.07"/><path class="cls-3" d="M165.73,76.07c-4.08-23,.37-47.31-1.48-71.16C162-5,151.62,3.74,144.57.51c-20.17,1.12-42.63,3-63.49,1.08-6.91,1.91-20-6.06-21,2.75a132.17,132.17,0,0,1,2.65,28.44h.48c6.21.29,18.28,3.13,22.69,4.32a28.35,28.35,0,0,1,12.88,7.61A9.61,9.61,0,0,0,101,47.8c1.2-.08,1.81,1.52,2.37,2.25a43.34,43.34,0,0,1,10.17,19.46c1.28,6.58,3.23,13,2.81,20.63a55.54,55.54,0,0,1-2.93,14.48c9.34.5,11.85-4.23,27.58.08,0,0,3,.47,5.49.78,4.76.58,10.56.46,13.57-1.54,7.5-8.4,4.57-17.8,5.69-27.87"/></g></g></svg>