<svg xmlns="http://www.w3.org/2000/svg" viewBox="0 0 198.6 50.8">
<defs>
<style>.color{fill:#ffffff;}</style>
</defs>
<path class="color" d="M70.53,8h-.87a3.84,3.84,0,0,0-.68.09v4.48h1.38a8.66,8.66,0,0,0,1.25-.09,2.74,2.74,0,0,0,1.11-.36,2.33,2.33,0,0,0,.79-.77,2.47,2.47,0,0,0,.3-1.3A2,2,0,0,0,73.53,9a2,2,0,0,0-.75-.66,3.16,3.16,0,0,0-1-.32,7.46,7.46,0,0,0-1.25,0M65.79,5.52c.64-.11,1.36-.2,2.15-.26s1.59-.1,2.38-.1a16.46,16.46,0,0,1,2.43.18A6.4,6.4,0,0,1,75,6.07a4.48,4.48,0,0,1,1.61,1.54,4.71,4.71,0,0,1,.62,2.59,5.11,5.11,0,0,1-.54,2.43,4.58,4.58,0,0,1-1.43,1.63,6.24,6.24,0,0,1-2,.91,8.9,8.9,0,0,1-2.35.29H69.06v5.08H65.79Z"/>
<path class="color" d="M82.45,18.22a2.59,2.59,0,0,0,1.62-.47,3.24,3.24,0,0,0,.88-1v-1.3a2,2,0,0,0-.33-.08l-.5-.09-.53-.06H83.1a2.76,2.76,0,0,0-1.72.43,1.23,1.23,0,0,0-.57,1,1.44,1.44,0,0,0,.45,1.16,1.76,1.76,0,0,0,1.19.39M78.51,9.9a11.64,11.64,0,0,1,2.38-.71,15,15,0,0,1,2.92-.28,6.16,6.16,0,0,1,2,.28,3.08,3.08,0,0,1,1.28.81,3.26,3.26,0,0,1,.68,1.27,6.54,6.54,0,0,1,.2,1.65,19.77,19.77,0,0,1-.08,2.18,20.89,20.89,0,0,0-.09,2.28,10.67,10.67,0,0,0,.11,1.6,8.26,8.26,0,0,0,.34,1.49H85.79L85.3,18.8H85a5.18,5.18,0,0,1-1.42,1.3,4.18,4.18,0,0,1-2.22.54,4.25,4.25,0,0,1-1.5-.24,3.52,3.52,0,0,1-1.17-.68,3.06,3.06,0,0,1-.75-1,3.27,3.27,0,0,1-.27-1.31A3.43,3.43,0,0,1,79,14.46a6.47,6.47,0,0,1,3.9-1,6.94,6.94,0,0,1,1.2.1l.84.14a6.85,6.85,0,0,0,.07-.78,1.59,1.59,0,0,0-.41-1.21,2.3,2.3,0,0,0-1.53-.38,8.42,8.42,0,0,0-2,.24,8.7,8.7,0,0,0-1.73.62Z"/>
<path class="color" d="M97.78,11.91a3.76,3.76,0,0,0-1.29-.22,2.58,2.58,0,0,0-1.57.45,2.13,2.13,0,0,0-.8,1.15v7.17h-3V9.15h2.37l.32,1.57h.28a3.3,3.3,0,0,1,1.15-1.36,3,3,0,0,1,1.65-.47,4.34,4.34,0,0,1,1.34.24Z"/>
<path class="color" d="M108.39,19.78a5.61,5.61,0,0,1-1.76.75,8.92,8.92,0,0,1-2.12.26,6.16,6.16,0,0,1-2.47-.43,4.23,4.23,0,0,1-1.64-1.23,5,5,0,0,1-.92-1.89,9.83,9.83,0,0,1-.28-2.42,6.51,6.51,0,0,1,1.39-4.41,5.1,5.1,0,0,1,4-1.59,8.92,8.92,0,0,1,2.12.21,6.54,6.54,0,0,1,1.48.53L107.5,12a5.79,5.79,0,0,0-2.39-.47,2.69,2.69,0,0,0-2.08.78,3.72,3.72,0,0,0-.72,2.54,4.29,4.29,0,0,0,.17,1.28,3,3,0,0,0,.54,1,2.49,2.49,0,0,0,.93.71,3.09,3.09,0,0,0,1.31.25,5,5,0,0,0,1.43-.16,4.47,4.47,0,0,0,1-.44Z"/>
<polygon class="color" points="126.63 8.18 121.84 8.18 121.84 20.46 118.65 20.46 118.65 8.18 113.86 8.18 113.86 5.37 126.63 5.37 126.63 8.18"/><path class="color" d="M129.82,18.22a2.58,2.58,0,0,0,1.61-.47,3.41,3.41,0,0,0,.89-1v-1.3a1.87,1.87,0,0,0-.34-.08l-.49-.09-.54-.06h-.49a2.76,2.76,0,0,0-1.72.43,1.22,1.22,0,0,0-.56,1,1.48,1.48,0,0,0,.44,1.16,1.71,1.71,0,0,0,1.2.39m-3.95-8.3a11.73,11.73,0,0,1,2.39-.71,15,15,0,0,1,2.91-.28,6.16,6.16,0,0,1,2,.28,2.9,2.9,0,0,1,2,2.08,6.12,6.12,0,0,1,.21,1.65,17.58,17.58,0,0,1-.09,2.18,18.65,18.65,0,0,0-.09,2.28,12.17,12.17,0,0,0,.11,1.6,8.28,8.28,0,0,0,.35,1.49h-2.46l-.5-1.69h-.26A4.89,4.89,0,0,1,131,20.1a4.09,4.09,0,0,1-2.22.54,4.49,4.49,0,0,1-1.5-.24,3.32,3.32,0,0,1-1.16-.68,3.09,3.09,0,0,1-.76-1,3.27,3.27,0,0,1-.27-1.31,3.43,3.43,0,0,1,1.29-2.9,6.44,6.44,0,0,1,3.89-1,6.94,6.94,0,0,1,1.2.1l.85.14a5.12,5.12,0,0,0,.06-.78,1.59,1.59,0,0,0-.41-1.21,2.25,2.25,0,0,0-1.53-.38,8.42,8.42,0,0,0-2,.24,8.7,8.7,0,0,0-1.73.62Z"/>
<path class="color" d="M141.48,9.15v6.27a4.05,4.05,0,0,0,.39,2,1.57,1.57,0,0,0,1.49.64,2.52,2.52,0,0,0,1.59-.49,3,3,0,0,0,1-1.25V9.15h3V17a12.33,12.33,0,0,0,.09,1.82,15,15,0,0,0,.27,1.63h-2.22l-.58-1.76h-.23a4.49,4.49,0,0,1-1.6,1.49,4.57,4.57,0,0,1-2.37.6,5.05,5.05,0,0,1-1.64-.24,2.69,2.69,0,0,1-1.2-.79,3.62,3.62,0,0,1-.73-1.45,8.46,8.46,0,0,1-.25-2.24V9.15Z"/>
<path class="color" d="M155.38,16.5c0,1.09.36,1.64,1.06,1.64a2.76,2.76,0,0,0,.57-.06,3.58,3.58,0,0,0,.64-.18l.36,2.35a7.49,7.49,0,0,1-2.84.56,3.16,3.16,0,0,1-2.08-.6,2.48,2.48,0,0,1-.72-2V5.37h3Z"/>
<path class="color" d="M159.93,9.15h3V20.47h-3Zm1.19-4.4h3.06v.62l-2.72,2.79h-1.63Z"/>
<path class="color" d="M9.6,14.76c.38-.21,2.32-.89,3.33-1.28a12.47,12.47,0,0,1,3.13-.71,11.28,11.28,0,0,1,2.66-.13c1,.1,1.71-.11,3-.05A47.91,47.91,0,0,1,29.05,14a9.18,9.18,0,0,1,4.17,2.45,3.12,3.12,0,0,0,.72,1c.38,0,.59.49.77.72A13.91,13.91,0,0,1,38,24.44a25.41,25.41,0,0,1,.91,6.66,23.22,23.22,0,0,1-3.85,10.62c-2.38,3.14-5.33,6.15-9,7.45A22,22,0,0,1,19,50.77,22.71,22.71,0,0,1,7.2,48.15c-2.14-1.3-3-1.88-4.28-4a9.5,9.5,0,0,1-1.21-4.69C0,37.13.13,33.6,0,30.72c.49-4,1.88-8.67,4.38-11.81,1.68-1.42,3.3-3.14,5.22-4.15"/>
<path class="color" d="M57.32,26.21c-1.42-7.92.12-16.3-.52-24.52C56-1.73,52.44,1.29,50,.18c-7,.38-14.75,1-22,.36-2.39.67-6.92-2.08-7.26,1a45.07,45.07,0,0,1,.9,9.41H22a53,53,0,0,1,8,1.52,10,10,0,0,1,4.55,2.68,3.22,3.22,0,0,0,.78,1.08c.42,0,.64.54.84.79a15.42,15.42,0,0,1,3.59,6.84,28.31,28.31,0,0,1,1,7.26,19.47,19.47,0,0,1-1,5c2.77,0,3.86-1.37,9,0,0,0,1,.16,1.9.27,1.64.2,3.65.16,4.69-.53,2.59-2.9,1.58-6.13,2-9.6"/>
<rect class="color" x="65.69" y="25.34" width="1.99" height="10.19"/>
<path class="color" d="M74,35.53V31.4a2.46,2.46,0,0,0-.26-1.28.94.94,0,0,0-.86-.4A1.38,1.38,0,0,0,72,30a1.65,1.65,0,0,0-.53.77v4.72H69.59V28.25h1.49l.22,1h.06a3,3,0,0,1,.89-.81,2.61,2.61,0,0,1,1.42-.35,2.82,2.82,0,0,1,1,.15,1.58,1.58,0,0,1,.71.48,2.15,2.15,0,0,1,.43.9A5.33,5.33,0,0,1,75.93,31v4.53Z"/><path class="color" d="M80.53,33.52a.55.55,0,0,0-.25-.47,3.55,3.55,0,0,0-.61-.32l-.8-.29a3.43,3.43,0,0,1-.8-.43,2.09,2.09,0,0,1-.61-.68,2,2,0,0,1-.25-1.07,2,2,0,0,1,.64-1.64,2.69,2.69,0,0,1,1.85-.57,6.33,6.33,0,0,1,1.5.17,4.54,4.54,0,0,1,1,.4L81.82,30c-.22-.08-.5-.18-.84-.27a3.37,3.37,0,0,0-1-.15c-.57,0-.85.22-.85.66a.48.48,0,0,0,.25.42A3.45,3.45,0,0,0,80,31l.8.3a3.56,3.56,0,0,1,.8.41,2,2,0,0,1,.61.66,1.93,1.93,0,0,1,.25,1,2.16,2.16,0,0,1-.71,1.74,3.07,3.07,0,0,1-2.11.63,5,5,0,0,1-2.55-.65l.52-1.41a5.76,5.76,0,0,0,.89.37,3.67,3.67,0,0,0,1.14.18A1.21,1.21,0,0,0,80.3,34a.59.59,0,0,0,.26-.54"/><path class="color" d="M82.9,28.25h1V26.88l1.9-.53v1.9h1.77v1.6H85.8v2.8a2.66,2.66,0,0,0,.2,1.08.57.57,0,0,0,.57.33A1.54,1.54,0,0,0,87,34a1.59,1.59,0,0,0,.47-.17l.33,1.45a4.71,4.71,0,0,1-2,.45,1.91,1.91,0,0,1-1.47-.51,2.46,2.46,0,0,1-.48-1.7V29.85h-1Z"/><path class="color" d="M88.9,28.25h1.89v7.28H88.9Zm-.28-2.05a1,1,0,0,1,.31-.72,1.2,1.2,0,0,1,.87-.3,1.27,1.27,0,0,1,.89.3.91.91,0,0,1,.35.72.9.9,0,0,1-.35.71,1.3,1.3,0,0,1-.89.28,1.25,1.25,0,0,1-.87-.28.92.92,0,0,1-.31-.71"/><path class="color" d="M91.89,28.25h1V26.88l1.89-.53v1.9h1.78v1.6H94.79v2.8a2.83,2.83,0,0,0,.15,1.08.6.6,0,0,0,.58.33A2,2,0,0,0,96,34a3.75,3.75,0,0,0,.47-.17l.34,1.45a4.81,4.81,0,0,1-2,.45,1.93,1.93,0,0,1-1.48-.51,2.52,2.52,0,0,1-.47-1.7V29.85h-1Z"/><path class="color" d="M99.55,28.25v4.14a2.81,2.81,0,0,0,.21,1.28.84.84,0,0,0,.82.39,1.29,1.29,0,0,0,.9-.32A2.12,2.12,0,0,0,102,33V28.3h1.89v5.07a11.46,11.46,0,0,0,.06,1.17,8.35,8.35,0,0,0,.17,1H102.7l-.34-1.08h-.06a2.64,2.64,0,0,1-.93.92,2.7,2.7,0,0,1-1.41.36,3.36,3.36,0,0,1-1-.14,1.7,1.7,0,0,1-.73-.48,2.41,2.41,0,0,1-.44-.91,5.67,5.67,0,0,1-.15-1.42V28.25Z"/><path class="color" d="M104.8,28.25h1V26.88l1.89-.53v1.9h1.77v1.6H107.7v2.8a2.83,2.83,0,0,0,.15,1.08.57.57,0,0,0,.58.33,2.07,2.07,0,0,0,.5-.06,3.75,3.75,0,0,0,.47-.17l.34,1.45a5,5,0,0,1-.92.32,4.22,4.22,0,0,1-1.06.13,1.93,1.93,0,0,1-1.48-.51,2.46,2.46,0,0,1-.47-1.7V29.85h-1Z"/><path class="color" d="M117.29,34.13a1.31,1.31,0,0,0,.87-.27,1.41,1.41,0,0,0,.45-.78V30a1.22,1.22,0,0,0-.45-.24,2.29,2.29,0,0,0-.64-.08,1.41,1.41,0,0,0-1.2.54,3.15,3.15,0,0,0-.4,1.85,3,3,0,0,0,.33,1.49,1.12,1.12,0,0,0,1,.57M120.5,33v1.22a10.28,10.28,0,0,0,.13,1.35H119.3l-.3-1h0a2.28,2.28,0,0,1-.84.82,2.51,2.51,0,0,1-1.29.31,2.63,2.63,0,0,1-2.12-.9A4.32,4.32,0,0,1,114,32a4.49,4.49,0,0,1,.84-2.9,3,3,0,0,1,2.48-1,3.64,3.64,0,0,1,.74,0,2.41,2.41,0,0,1,.58.17v-3h1.89Z"/><path class="color" d="M121.89,26.16a.9.9,0,0,1,.28-.69,1.14,1.14,0,0,1,1.55.09,1.4,1.4,0,0,1,.31.92,2.29,2.29,0,0,1-.19,1,2.26,2.26,0,0,1-.43.67,2.49,2.49,0,0,1-.54.43c-.19.1-.35.17-.47.22l-.48-.8a1.78,1.78,0,0,0,.51-.35.82.82,0,0,0,.26-.55.71.71,0,0,1-.55-.23.91.91,0,0,1-.25-.7"/><rect class="color" x="125.66" y="25.34" width="1.99" height="10.19"/><path class="color" d="M134,35.53V31.4a2.46,2.46,0,0,0-.26-1.28.94.94,0,0,0-.86-.4A1.38,1.38,0,0,0,132,30a1.65,1.65,0,0,0-.53.77v4.72h-1.89V28.25h1.49l.22,1h.06a3,3,0,0,1,.89-.81,2.61,2.61,0,0,1,1.42-.35,2.82,2.82,0,0,1,1,.15,1.58,1.58,0,0,1,.71.48,2.15,2.15,0,0,1,.43.9,5.8,5.8,0,0,1,.1,1.38v4.53Z"/><polygon class="color" points="140 32.06 140.25 33.19 140.32 33.19 140.53 32.04 141.76 28.25 143.8 28.25 140.76 35.6 139.61 35.6 136.45 28.25 138.65 28.25 140 32.06"/><path class="color" d="M147.44,29.56a1.35,1.35,0,0,0-1.1.45,2.1,2.1,0,0,0-.43,1.18h2.71a1.83,1.83,0,0,0-.24-1.21,1.08,1.08,0,0,0-.94-.42m2.71,5.34a3.58,3.58,0,0,1-1.19.59,5.33,5.33,0,0,1-1.59.24,3.11,3.11,0,0,1-2.58-1,4.44,4.44,0,0,1-.81-2.82,4,4,0,0,1,.91-2.88,3.41,3.41,0,0,1,2.58-1,4.38,4.38,0,0,1,1.08.14,2.38,2.38,0,0,1,.93.49,2.24,2.24,0,0,1,.65.9,3.42,3.42,0,0,1,.25,1.41c0,.22,0,.43,0,.65a5.84,5.84,0,0,1-.11.73h-4.36a2.16,2.16,0,0,0,.47,1.38,1.82,1.82,0,0,0,1.39.47,3.1,3.1,0,0,0,1.79-.55Z"/><path class="color" d="M154.73,33.52a.55.55,0,0,0-.25-.47,3,3,0,0,0-.61-.32l-.8-.29a3.43,3.43,0,0,1-.8-.43,2.33,2.33,0,0,1-.61-.68,2.11,2.11,0,0,1-.25-1.07,2.06,2.06,0,0,1,.64-1.64,2.74,2.74,0,0,1,1.85-.57,6.28,6.28,0,0,1,1.5.17,4,4,0,0,1,1,.4L156,30c-.23-.08-.51-.18-.85-.27a3.37,3.37,0,0,0-1-.15q-.84,0-.84.66a.49.49,0,0,0,.24.42,3.45,3.45,0,0,0,.61.3l.8.3a2.88,2.88,0,0,1,.8.41,2.17,2.17,0,0,1,.62.66,2,2,0,0,1,.24,1,2.2,2.2,0,0,1-.7,1.74,3.11,3.11,0,0,1-2.12.63,5.45,5.45,0,0,1-1.45-.19,5,5,0,0,1-1.1-.46l.53-1.41a5.38,5.38,0,0,0,.89.37,3.61,3.61,0,0,0,1.13.18,1.24,1.24,0,0,0,.68-.16.6.6,0,0,0,.25-.54"/><path class="color" d="M157.1,28.25h1V26.88l1.89-.53v1.9h1.77v1.6H160v2.8a2.83,2.83,0,0,0,.15,1.08.59.59,0,0,0,.58.33,2.07,2.07,0,0,0,.5-.06,3.75,3.75,0,0,0,.47-.17l.34,1.45a5,5,0,0,1-.92.32,4.22,4.22,0,0,1-1.06.13,1.93,1.93,0,0,1-1.48-.51,2.52,2.52,0,0,1-.47-1.7V29.85h-1Z"/><path class="color" d="M163.1,28.25H165v7.28h-1.9Zm-.28-2.05a1,1,0,0,1,.32-.72,1.17,1.17,0,0,1,.86-.3,1.33,1.33,0,0,1,.9.3,1,1,0,0,1,.34.72.89.89,0,0,1-.34.71,1.34,1.34,0,0,1-.9.28,1.22,1.22,0,0,1-.86-.28.93.93,0,0,1-.32-.71"/><path class="color" d="M169.81,34.13a1.3,1.3,0,0,0,.85-.24,1.58,1.58,0,0,0,.46-.75V29.87a2.87,2.87,0,0,0-1.12-.19,1.34,1.34,0,0,0-1.14.55,2.91,2.91,0,0,0-.41,1.73,3.15,3.15,0,0,0,.35,1.62,1.13,1.13,0,0,0,1,.55m3.2,1.4a3,3,0,0,1-.86,2.34,3.58,3.58,0,0,1-2.4.74,7,7,0,0,1-1.65-.14,4.25,4.25,0,0,1-.91-.31l.39-1.5q.33.14.78.27a4.53,4.53,0,0,0,1.1.13,1.68,1.68,0,0,0,1.34-.43,1.85,1.85,0,0,0,.36-1.2V35h-.06a2.07,2.07,0,0,1-1.8.69,2.52,2.52,0,0,1-2.1-.88,4.33,4.33,0,0,1-.7-2.73,4.19,4.19,0,0,1,.94-3,3.48,3.48,0,0,1,2.7-1,9.33,9.33,0,0,1,1.67.13,7,7,0,0,1,1.2.31Z"/><path class="color" d="M177,34.09a1.44,1.44,0,0,0,.9-.26,1.84,1.84,0,0,0,.5-.54v-.95a6.32,6.32,0,0,0-.87,0,3,3,0,0,0-.73.13,1.13,1.13,0,0,0-.51.29.63.63,0,0,0-.19.48.83.83,0,0,0,.24.63.94.94,0,0,0,.66.23m-2.4-5.42a6.08,6.08,0,0,1,1.38-.41,9.46,9.46,0,0,1,1.68-.15,3.84,3.84,0,0,1,1.26.18,1.82,1.82,0,0,1,1.23,1.32,4.22,4.22,0,0,1,.13,1v1.29a10.62,10.62,0,0,1-.05,1.27,9.93,9.93,0,0,0,0,1.22,4.65,4.65,0,0,0,.22,1.11H178.9l-.3-1h-.08a2.7,2.7,0,0,1-.8.78,2.43,2.43,0,0,1-1.34.33,2.57,2.57,0,0,1-.91-.16,2,2,0,0,1-.7-.43,2.06,2.06,0,0,1-.61-1.54,2,2,0,0,1,.3-1.13,2.2,2.2,0,0,1,.86-.74,4.16,4.16,0,0,1,1.33-.39,9.22,9.22,0,0,1,1.74-.07,1.88,1.88,0,0,0-.11-1.17c-.15-.24-.47-.36-1-.36a6.11,6.11,0,0,0-1.2.12,4.45,4.45,0,0,0-1,.31Z"/><path class="color" d="M187,35.08a3.36,3.36,0,0,1-1.05.49,5,5,0,0,1-1.28.16,3.72,3.72,0,0,1-1.47-.27,2.72,2.72,0,0,1-1-.78,3.19,3.19,0,0,1-.54-1.22,6.93,6.93,0,0,1-.17-1.57,4.32,4.32,0,0,1,.83-2.84,3,3,0,0,1,2.42-1,5,5,0,0,1,1.28.13,4.76,4.76,0,0,1,.89.33l-.46,1.55a3.74,3.74,0,0,0-.66-.25,3.14,3.14,0,0,0-.75-.09,1.4,1.4,0,0,0-1.19.52,2.67,2.67,0,0,0-.41,1.65,3.55,3.55,0,0,0,.1.86,2,2,0,0,0,.31.68,1.31,1.31,0,0,0,.53.46,1.69,1.69,0,0,0,.76.17,2.27,2.27,0,0,0,.82-.12,3.36,3.36,0,0,0,.6-.3Z"/><path class="color" d="M188.33,28.25h1.9v7.28h-1.9Zm-.27-2.05a1,1,0,0,1,.31-.72,1.2,1.2,0,0,1,.87-.3,1.32,1.32,0,0,1,.89.3.92.92,0,0,1,.34.72.89.89,0,0,1-.34.71,1.35,1.35,0,0,1-.89.28,1.25,1.25,0,0,1-.87-.28.92.92,0,0,1-.31-.71"/><path class="color" d="M195.26,25.05h1.92v.44l-1.62,1.8h-1.07Zm-1.57,6.84a5.26,5.26,0,0,0,.08.89,2.27,2.27,0,0,0,.27.71,1.1,1.1,0,0,0,.46.47,1.2,1.2,0,0,0,.67.17,1.25,1.25,0,0,0,1.11-.54,3.13,3.13,0,0,0,.36-1.7,3.49,3.49,0,0,0-.33-1.62,1.21,1.21,0,0,0-1.14-.62,1.28,1.28,0,0,0-1.09.52,3,3,0,0,0-.39,1.72m-1.95,0a4.06,4.06,0,0,1,.9-2.84,3.21,3.21,0,0,1,2.53-1,3.76,3.76,0,0,1,1.52.28,2.79,2.79,0,0,1,1.06.77,3.3,3.3,0,0,1,.63,1.22,5.22,5.22,0,0,1,.21,1.57,4.19,4.19,0,0,1-.89,2.85,3.25,3.25,0,0,1-2.53,1,3.88,3.88,0,0,1-1.51-.27,3,3,0,0,1-1.07-.78,3.18,3.18,0,0,1-.64-1.22,5.22,5.22,0,0,1-.21-1.57"/><path class="color" d="M65.6,41.54h1.89v7.28H65.6Zm-.28-2a1,1,0,0,1,.31-.72,1.2,1.2,0,0,1,.87-.3,1.33,1.33,0,0,1,.9.3,1,1,0,0,1,.34.72.91.91,0,0,1-.34.7,1.41,1.41,0,0,1-.9.29,1.24,1.24,0,0,1-.87-.29.93.93,0,0,1-.31-.7"/><rect class="color" x="73.28" y="38.63" width="1.99" height="10.19"/><path class="color" d="M81.63,48.82V44.68a2.47,2.47,0,0,0-.25-1.28,1,1,0,0,0-.87-.39,1.38,1.38,0,0,0-.91.31,1.9,1.9,0,0,0-.53.78v4.72H77.18V41.54h1.5l.22,1H79a3.24,3.24,0,0,1,.88-.81,2.64,2.64,0,0,1,1.43-.35,3.06,3.06,0,0,1,1,.14A1.72,1.72,0,0,1,83,42a2.27,2.27,0,0,1,.44.91,5.67,5.67,0,0,1,.15,1.42v4.53Z"/><path class="color" d="M89.57,48.82V44.68a2.46,2.46,0,0,0-.26-1.28,1,1,0,0,0-.87-.39,1.33,1.33,0,0,0-.9.31,1.83,1.83,0,0,0-.54.78v4.72H85.11V41.54h1.5l.22,1h.06a3,3,0,0,1,.89-.81,2.52,2.52,0,0,1,1.42-.35,3.06,3.06,0,0,1,1,.14,1.76,1.76,0,0,1,.72.48,2.39,2.39,0,0,1,.43.91,5.67,5.67,0,0,1,.15,1.42v4.53Z"/><path class="color" d="M94.64,45.18a4.41,4.41,0,0,0,.09.89,2.52,2.52,0,0,0,.26.71,1.3,1.3,0,0,0,.46.47,1.35,1.35,0,0,0,.68.17,1.22,1.22,0,0,0,1.1-.54,3,3,0,0,0,.37-1.7,3.42,3.42,0,0,0-.34-1.63,1.17,1.17,0,0,0-1.13-.61,1.26,1.26,0,0,0-1.09.52,2.89,2.89,0,0,0-.4,1.72m-2,0a4.14,4.14,0,0,1,.91-2.85,3.25,3.25,0,0,1,2.53-1,3.88,3.88,0,0,1,1.51.27,2.92,2.92,0,0,1,1.06.78,3.18,3.18,0,0,1,.64,1.22,5.22,5.22,0,0,1,.21,1.57A4.06,4.06,0,0,1,98.6,48a3.18,3.18,0,0,1-2.52,1,3.72,3.72,0,0,1-1.51-.28,2.74,2.74,0,0,1-1-.73,3.14,3.14,0,0,1-.64-1.21,5.23,5.23,0,0,1-.22-1.57"/><polygon class="color" points="103.2 45.35 103.45 46.47 103.52 46.47 103.72 45.32 104.96 41.54 107 41.54 103.96 48.89 102.81 48.89 99.65 41.54 101.85 41.54 103.2 45.35"/><path class="color" d="M110,47.37a1.48,1.48,0,0,0,.91-.25,1.72,1.72,0,0,0,.49-.55v-.94a6.31,6.31,0,0,0-.87,0,3,3,0,0,0-.73.14,1.13,1.13,0,0,0-.51.29.61.61,0,0,0-.19.48.83.83,0,0,0,.24.63.89.89,0,0,0,.66.22M107.58,42a6.08,6.08,0,0,1,1.38-.41,8.62,8.62,0,0,1,1.68-.16,3.61,3.61,0,0,1,1.26.19,1.78,1.78,0,0,1,1.23,1.31,3.76,3.76,0,0,1,.13,1,11.13,11.13,0,0,1-.05,1.29,10.76,10.76,0,0,0,0,1.27v1.22a4.65,4.65,0,0,0,.22,1.11h-1.55l-.3-1h-.07a2.59,2.59,0,0,1-.81.77,2.46,2.46,0,0,1-1.33.33,2.91,2.91,0,0,1-.92-.15,2.13,2.13,0,0,1-.7-.44,2,2,0,0,1-.45-.67,2.12,2.12,0,0,1-.16-.86,1.95,1.95,0,0,1,1.16-1.87,4.42,4.42,0,0,1,1.34-.4,10.13,10.13,0,0,1,1.74-.06,2,2,0,0,0-.12-1.17c-.15-.24-.47-.36-1-.36a6.11,6.11,0,0,0-1.2.12,4.43,4.43,0,0,0-1,.3Z"/><path class="color" d="M120,48.36a3.11,3.11,0,0,1-1,.49,4.92,4.92,0,0,1-1.27.17,3.42,3.42,0,0,1-1.48-.28,2.52,2.52,0,0,1-1-.77,3.07,3.07,0,0,1-.55-1.22,6.93,6.93,0,0,1-.17-1.57,4.39,4.39,0,0,1,.83-2.85,3,3,0,0,1,2.42-1,5.09,5.09,0,0,1,1.29.13,4.67,4.67,0,0,1,.88.33l-.45,1.54a4.12,4.12,0,0,0-.67-.24A2.9,2.9,0,0,0,118,43a1.4,1.4,0,0,0-1.19.52,2.67,2.67,0,0,0-.41,1.65,3.56,3.56,0,0,0,.11.86,2.17,2.17,0,0,0,.3.68,1.39,1.39,0,0,0,.53.46,1.7,1.7,0,0,0,.77.17,2.45,2.45,0,0,0,.81-.13,3.36,3.36,0,0,0,.6-.3Z"/><path class="color" d="M121.3,41.54h1.9v7.28h-1.9Zm-.27-2a1,1,0,0,1,.31-.72,1.2,1.2,0,0,1,.87-.3,1.32,1.32,0,0,1,.89.3.92.92,0,0,1,.34.72.88.88,0,0,1-.34.7,1.36,1.36,0,0,1-.89.29,1.24,1.24,0,0,1-.87-.29.9.9,0,0,1-.31-.7"/><path class="color" d="M128.23,38.34h1.92v.43l-1.61,1.81h-1.08Zm-1.57,6.84a4.41,4.41,0,0,0,.09.89,2.52,2.52,0,0,0,.26.71,1.36,1.36,0,0,0,2.24.1,3.13,3.13,0,0,0,.36-1.7,3.53,3.53,0,0,0-.33-1.63,1.18,1.18,0,0,0-1.14-.61,1.28,1.28,0,0,0-1.09.52,3,3,0,0,0-.39,1.72m-2,0a4.08,4.08,0,0,1,.9-2.85,3.25,3.25,0,0,1,2.53-1,3.93,3.93,0,0,1,1.52.27,2.92,2.92,0,0,1,1.06.78,3.3,3.3,0,0,1,.63,1.22,5.22,5.22,0,0,1,.21,1.57,4.11,4.11,0,0,1-.89,2.84,3.21,3.21,0,0,1-2.53,1,3.72,3.72,0,0,1-1.51-.28,2.85,2.85,0,0,1-1.07-.78,3.14,3.14,0,0,1-.64-1.21,5.56,5.56,0,0,1-.21-1.57"/><rect class="color" x="136.8" y="38.63" width="1.99" height="10.19"/><path class="color" d="M143.38,47.42a1.89,1.89,0,0,0,1.38-.48,1.6,1.6,0,0,0,.47-1.17,1.45,1.45,0,0,0-.5-1.22,2.49,2.49,0,0,0-1.55-.39h-1.05v-1l1.76-2.4.83-.65-1.15.13h-2.45v-1.6h5.56v1l-2.05,2.75-.64.4v.07l.61-.09a3.46,3.46,0,0,1,1,.23,2.44,2.44,0,0,1,.8.55,2.52,2.52,0,0,1,.55.88,3.34,3.34,0,0,1,.2,1.21,3.58,3.58,0,0,1-.28,1.48,3,3,0,0,1-.79,1,3.24,3.24,0,0,1-1.17.63,5.38,5.38,0,0,1-1.44.2,7.39,7.39,0,0,1-1.33-.12,3.58,3.58,0,0,1-1.1-.33l.51-1.57a4.12,4.12,0,0,0,.83.3,4.21,4.21,0,0,0,1,.12"/><path class="color" d="M152,40.2h-.56l-.42,0v3.31h.86a4.13,4.13,0,0,0,.78-.08,2.16,2.16,0,0,0,.69-.27,1.49,1.49,0,0,0,.49-.54,2.07,2.07,0,0,0,.18-.92,1.56,1.56,0,0,0-.18-.79,1.38,1.38,0,0,0-.46-.5,1.65,1.65,0,0,0-.64-.27,4.53,4.53,0,0,0-.74-.07m-3-1.47a10,10,0,0,1,1.34-.18c.49,0,1-.07,1.47-.07a9.64,9.64,0,0,1,1.52.13,4,4,0,0,1,1.37.49,2.82,2.82,0,0,1,1,1,3.52,3.52,0,0,1,.38,1.72,3.62,3.62,0,0,1-.33,1.62,3,3,0,0,1-.89,1.09,3.69,3.69,0,0,1-1.26.61,6,6,0,0,1-1.46.19H151v3.51h-2Z"/><polygon class="color" points="164.44 40.41 161.47 40.41 161.47 48.82 159.47 48.82 159.47 40.41 156.49 40.41 156.49 38.63 164.44 38.63 164.44 40.41"/>
<path class="color" d="M178.41,21.42a23,23,0,0,1-1.59-1.85l1-.62a6.33,6.33,0,0,0,3.26-4l.1-.58h-8.47V0h14.65V7.67c0,8.41,0,8.55-.92,10.42a11.08,11.08,0,0,1-3.16,3.5,19.09,19.09,0,0,1-3.12,1.66A20.19,20.19,0,0,1,178.41,21.42Zm.36-11.23V8.61h.89c.62,0,1,.07,1.14.24s.22.06.43,1.57l.18,1.28,1.24.05,1.24,0-.08-.87A5.38,5.38,0,0,0,183,8l-.37-.45.39-.45A2.78,2.78,0,0,0,182.4,3c-.47-.29-.83-.32-3.28-.36l-2.76-.06v9.24h2.41Z"/>
<path class="color" d="M178.77,5.74V4.83h.95c1.08,0,1.47.26,1.47,1s-.52.86-1.54.86h-.88Z"/>
</svg>